<?xml version="1.0" encoding="utf-8"?>
<!-- Generator: Adobe Illustrator 27.0.1, SVG Export Plug-In . SVG Version: 6.00 Build 0)  -->
<svg version="1.1" id="Layer_1" xmlns="http://www.w3.org/2000/svg" xmlns:xlink="http://www.w3.org/1999/xlink" x="0px" y="0px"
	 viewBox="0 0 77.9 101.3" style="enable-background:new 0 0 77.9 101.3;" xml:space="preserve">
<style type="text/css">
	.st0{opacity:0.5;fill:#ECAE35;}
	.st1{fill:#ECAE35;}
</style>
<polygon class="st0" points="6.7,25.2 6,78.5 7.5,80.4 10.9,81.8 15.8,83 20.9,83.7 30.7,84.3 50.9,84.3 62,83 69.4,80.8 71.8,78.8 
	71.5,24.7 68.1,23.6 59.7,22.3 47.8,21.5 37.1,21.3 27.8,21.4 20,22.1 15.4,22.6 11.2,23.2 7.6,24.5 "/>
<g>
	<g>
		<path class="st1" d="M77.6,47c-0.1,9.9-0.2,19.7-0.3,29.6c0,4.2-0.1,8.3-0.1,12.5c0,2.8-1.2,4.9-3.4,6.4c-2.4,1.7-5.2,2.5-8,3.2
			c-5.4,1.3-10.9,1.9-16.4,2.3c-9.5,0.6-18.9,0.3-28.3-0.9c-4.7-0.6-9.3-1.4-13.7-3.2c-2-0.8-3.8-1.7-5.3-3.2
			c-1.2-1.3-1.9-2.8-1.9-4.6C0.2,72.4,0.1,55.6,0.1,38.8C0,30.1,0,21.3,0,12.5c0-2.6,0-5.2,0-7.9c0-1.4,0.5-2.3,2-2.6
			c2.4-0.5,4.9-1,7.3-1.2c12.9-1.1,25.9-1,38.9-0.8C55,0.3,61.7,0.7,68.5,1c2,0.1,4,0.4,6,0.7c0.6,0.1,1.1,0.3,1.7,0.5
			c1.1,0.4,1.7,1.2,1.7,2.5c0,5.1,0,10.1-0.1,15.2C77.8,28.9,77.7,38,77.6,47z M46.5,83.9c-0.2-4.7,0-7.1,0.8-7.8
			c0.8,1.7,0.4,3.5,0.4,5.2c1.5,0.2,3,0.4,4.4,0.7c0,0.1,0,0.2,0,0.4c-0.5,0.1-0.9,0.2-1.4,0.2c-0.9,0-0.9,0-1.5,0.7
			c-0.2-0.1-0.5-0.3-0.6-0.4c-0.2-0.7-0.7-0.5-1.1-0.6c0,0.5-0.1,1-0.1,1.5c0.2,0,0.3,0,0.5,0c1.8-0.1,3.5-0.2,5.3-0.4
			c0.8-0.1,1.8,0.2,2.3-0.8c0.7,0.7,1.6,0.6,2-0.2c0.9,0.5,1.2,0.5,2.1-0.2c0.3,0.1,0.5,0.3,0.7,0.3c1.8-0.3,3.6-0.7,5.3-1.1
			c-0.1-0.5-0.1-0.8-0.1-1.1c0-0.2,0.3-0.3,0.4-0.5c0.1,0.2,0.2,0.4,0.3,0.6c0,0.2-0.1,0.5-0.1,0.9c0.6-0.2,1.3-0.3,1.5-0.6
			c0.3-0.7,0.2-1.4,0.3-2.2c0-0.2-0.3-0.4-0.4-0.6c-0.1-0.1-0.1-0.2-0.1-0.3c0.1,0,0.2-0.1,0.2-0.1c1,0.7,0.5,1.9,0.8,2.8
			c1,0,1.4-1,2.2-1.6c-0.1-0.2-0.1-0.9-0.3-1c-1.2-0.7-2.4-1.2-3.6-1.7c-0.2,0.5-0.4,0.8-0.5,1.2c-0.8-0.2-0.9-0.3-0.6-1.4
			c-0.8-0.2-1.5-0.4-2.3-0.6c-0.4-0.1-0.9-0.4-1.3,0.1c0,0-0.3,0-0.4-0.1c-0.3-0.6-0.9-0.4-1.4-0.5c0,0.1-0.1,0.2-0.1,0.3
			c1,0.3,2,0.6,3,0.9c0,0.1,0,0.2-0.1,0.2c-0.8-0.2-1.6-0.4-2.3-0.4c-0.8-0.1-1.5-0.2-2.2-0.7c0.3-0.1,0.5-0.1,0.8-0.2
			c0-0.1,0-0.2,0-0.2c-0.3-0.1-0.6-0.2-1-0.3c-0.1,1.2-0.1,2.3-0.2,3.4c0,0.2-0.2,0.4-0.4,0.7c-0.2-0.2-0.5-0.3-0.6-0.5
			c-0.2-1.1-0.4-2.1-0.6-3.2c0-0.3,0-0.6-0.5-0.7c-1.4-0.2-2.7-0.4-4.1-0.6c-0.1,0-0.3,0.2-0.4,0.3c0.1,0.1,0.2,0.3,0.3,0.3
			c0.5,0.1,1,0.1,1.5,0.2c0.6,0.1,1.2,0.2,1.8,0.2c0,0.1,0,0.2,0,0.2c-1.2-0.1-2.4-0.2-3.6-0.3c-0.1,0.2-0.2,0.4-0.2,0.6
			c-0.9-0.7-0.9-0.7-1.7-0.8c-1.2-0.2-2.4,0.2-3.6-0.3c-0.1,0-0.2,0-0.2,0c-0.1,3.4-0.2,6.7-0.3,10.1C45.8,83.9,46.1,83.9,46.5,83.9
			z M26,75.9c0.1,0,0.2,0,0.3,0c0.5,1.9,0.3,3.8,0.3,5.7c0.4,0,0.8,0,1.2,0c0-1,0-1.9,0-2.9c0-0.9,0.2-1.8,0.3-2.7
			c0.1,0,0.2,0,0.2,0c0.6,2.6,0.3,5.2,0.3,7.8c0.5,0,0.8,0,1.3,0c0-3.6,0-7.1,0-10.8c-2.6,0.2-5.1,0.4-7.7,0.5c0,2.9,0,5.6,0,8.3
			c0.4,0.1,0.8,0.2,1.1,0.2c0,0.1,0,0.2,0,0.2c-0.4,0.1-0.8,0.3-1.2,0.4c0,0.2,0,0.4,0,0.6c1.1,0.1,2.2,0.2,3.4,0.3
			c0-0.7,0.3-1.4-0.7-1.6c1-0.3,0.8-1,0.8-1.7c0-0.8,0-1.7,0.1-2.5C25.8,77.2,26,76.6,26,75.9z M31,48.1c-0.1,1-0.3,2-0.4,2.9
			c-0.1,0-0.2,0-0.3,0c-0.1-1-0.2-2-0.4-3l0.1-0.8c0-0.1,0-0.2,0-0.2l0-1.5c0.1-1.9,0.2-3.8,0.3-5.8c0.1,0,0.2,0,0.3,0
			c0.6,1.9,0.3,3.9,0.4,5.9 M61.7,89.3c0-0.1,0-0.1,0.1-0.2c0.5,0.1,0.9,0.2,1.4,0.4c0.1-2,0.2-4,0.3-5.9c-5.4,0.6-10.6,1.1-16,1.7
			c-0.1,0.4,0.2,0.4,0.6,0.5c1.3,0.1,2.5,0.3,3.8,0.4c0.3,0,0.7,0.1,1,0.2c0.2-0.3,0.3-0.5,0.5-0.9c0.3,0.9,0.6,1.5,1.5,1.3
			c0.1-0.3,0.2-0.6,0.2-0.9c-0.3,0-0.5,0-0.7,0c0-0.1,0-0.2,0-0.2c2.6-0.4,5.2-0.9,7.8-1.3c0,0.1,0,0.2,0.1,0.2
			c-0.8,0.2-1.6,0.4-2.4,0.7c0.5,0.7-0.1,1.9,1.3,2.2c-0.3,0.3-0.6,0.6-0.8,0.9c0.3,0.3,0.7,0.5,0.9,0.8c0.1,0.4,0.2,0.7,0.3,1.2
			c-0.4-0.3-0.8-0.6-1.2-1c-0.1,2.3-0.3,4.4-0.4,6.5c1.2-0.1,2.4-0.2,3.5-0.3c0-0.1,0-0.1,0-0.2c-0.3,0-0.5-0.1-0.8-0.1
			c0.2-0.4,0.4-0.7,0.6-1.1c-0.4,0-0.7-0.1-0.9-0.1c-0.1,0-0.1-0.1-0.2-0.1c1.1-0.5,0.9-1.4,0.9-2.2c0-0.1,0-0.2,0-0.3
			c0.2-0.7,0-1.2-0.8-1.4C62.1,89.6,61.9,89.4,61.7,89.3z M36.9,79.3c-0.1,0-0.2,0-0.3,0c-0.7-1.8-0.2-3.8-0.4-5.7
			c-0.4,0-0.7,0-1.2,0c-0.1,1.4-0.2,2.8-0.2,4.2c-0.1,0-0.2,0-0.3,0c-0.1-0.2-0.2-0.5-0.3-0.7c-0.1-0.9-0.1-1.8-0.2-2.6
			c0-1-0.1-1.1-1.2-0.8c0,2.6,0,5.1,0,7.7c0.4,0,0.7,0.1,1.1,0.1c0,0.1,0,0.1,0,0.2c-0.4,0.1-0.8,0.3-1.2,0.4c0,0.6,0,1.2,0,1.8
			c0.5,0,0.9,0,1.4,0c0-0.6,0-1.2,0-1.8c0-0.5,0.1-1.1,0.2-1.6c0.1,0,0.2,0,0.3,0c0.1,1.2,0.1,2.3,0.2,3.5c0.5,0,0.9,0,1.4,0
			c0.1-0.7,0.2-1.4,0.3-2.1c0.1,0,0.1,0,0.2,0c0.1,0.7,0.2,1.4,0.3,2.1c0.4,0,0.7,0,1.2,0c0-0.6,0.1-1.3,0-1.9
			c-0.1-0.3-0.6-0.4-1.1-0.7c0.4-0.2,0.8-0.3,1.2-0.4c0-2.5,0-5,0-7.5c-0.3,0-0.7,0-1.1,0C37.1,75.6,37,77.4,36.9,79.3z M45.8,86.6
			c0,2.7,0.1,5.4-0.6,8.1c2-0.2,3.8-0.3,5.7-0.5c-0.3-1.1-0.3-2,0.4-2.9c1,0.9,0.1,1.9,0.3,2.7c0.5-0.1,0.9-0.1,1.3-0.1
			c-0.5-2.4-0.3-4.8-0.1-7.2c-1.1-0.2-2.2-0.3-3.1-0.5c-0.1,2.3-0.2,4.5-0.4,6.8c-0.1,0-0.3,0-0.4,0c-0.8-2.2-0.4-4.4-0.2-6.8
			c-0.4,0.1-0.7,0.1-1.1,0.2c0,0.2,0,0.3,0,0.4c-0.1,1.9-0.2,3.8-0.3,5.8c0,0.2-0.2,0.3-0.3,0.5c-0.1-0.1-0.4-0.2-0.4-0.4
			c-0.2-0.6-0.3-1.2-0.3-1.8c0-1.3,0-2.7,0.1-4c0-0.1,0-0.2,0-0.4C46.2,86.6,46,86.6,45.8,86.6z M71.8,79.5
			c-0.7,1.2-1.8,1.7-2.9,2.2c-0.4,0.2-0.6,0.4-0.5,0.8c0,0.2,0,0.5,0,0.7c-0.1,0.8,0,1.5,0.9,1.7c0.1,0,0.1,0.1,0.3,0.3
			c-0.5,0.1-0.9,0.3-1.3,0.4c-0.1,2.8-0.2,5.6-0.3,8.5c0.5-0.1,0.9-0.2,1.3-0.4c0.2-0.1,0.4-0.4,0.4-0.6c0-1.8,0-3.7,0-5.5
			c0-1.5,0.1-2.9,0.2-4.4c0.1,0,0.1,0,0.2,0c0.1,0.6,0.1,1.2,0.2,1.8c0.5,0.1,0.9,0.2,1.5,0.4C71.8,83.5,71.8,81.6,71.8,79.5z
			 M20.1,73.9c0,3.1,0,6.2,0,9.3c0.5,0,1,0.1,1.6,0.2c0-3.3,0-6.4,0-9.6C21.2,73.8,20.7,73.9,20.1,73.9z M56.9,95.1
			c-0.1-1-0.3-1.9-0.1-2.9c0.1-0.9,0.2-1.8,0.2-2.8c0.1-1.3,0.1-2.6,0.2-4c-0.6,0.1-1,0.1-1.4,0.2c0,0.8,0.4,1.4,0.4,2.2
			c-0.1,1.2-0.1,2.4-0.2,3.6c-0.1,1.3-0.2,2.7-0.3,4.1C56.2,95.4,56.5,95.3,56.9,95.1z M5.2,85.9c0,1.6,0,3.2,0,4.8
			c0.6-0.4,1.2-0.7,1.8-1c0.1-0.1,0.2-0.2,0.2-0.3c0-1.3,0-2.5,0-3.8C6.4,85.7,5.8,85.8,5.2,85.9z M30.9,73.1c0,2.8,0,5.6,0,8.4
			c0.4-0.1,0.7-0.1,1.1-0.2c0-2.6,0-5.1,0-7.7c-0.1,0-0.3-0.1-0.6-0.2c0.3-0.1,0.5-0.2,0.7-0.2c0-0.1,0-0.1,0-0.2
			C31.7,73.1,31.4,73.1,30.9,73.1z M44.3,81.4c0.1-2.6,0.3-5.1,0.4-7.7c-0.4,0-0.7-0.1-1.1-0.1c0,0.3,0,0.5,0,0.7
			c-0.1,2.1-0.2,4.2-0.2,6.3C43.3,81.5,43.3,81.5,44.3,81.4z M42.3,81.3c0-2.8,0-5.6,0-8.3c-0.6-0.2-0.8,0-0.8,0.6
			c0,2.1-0.1,4.2-0.2,6.3c0,0.4,0,0.8,0,1.2C41.6,81.3,41.8,81.3,42.3,81.3z M12.1,76.4c-0.1,0.4-0.3,0.7-0.3,1.1
			c-0.1,1-0.1,2.1-0.1,3.1c0,1,0.2,1.2,1.3,1.2c0-2.2,0-4.4,0-6.9c-0.5,0.3-0.9,0.4-1.2,0.7C11.8,75.7,12,76.1,12.1,76.4z
			 M39.2,73.6c0,2.5,0,5,0,7.5c0.3,0,0.7,0,1,0c0-2.5,0-5,0-7.6C39.9,73.5,39.6,73.6,39.2,73.6z M64.5,83.9
			c0.3,3.8,0.3,7.6-0.4,11.4c0.4-0.1,0.7-0.1,1-0.2c0.1-0.1,0.3-0.3,0.3-0.5c-0.1-2.1-0.2-4.2-0.2-6.3c0-1.5,0.1-3,0.2-4.5
			C65.1,83.7,64.8,83.8,64.5,83.9z M10.4,77c0.1,0,0.1,0.1,0.2,0.1c-1.2,0.6-0.9,1.6-0.9,2.5c0,0.3,0,0.6,0,0.8
			c0,0.2,0.1,0.4,0.2,0.4c0.4,0.2,0.8,0.3,1.2,0.5c0-1.9,0-3.8,0-5.6c-1.4,0.2-1.5,0.3-1.3,1.5C10,77.1,10.2,77,10.4,77z M9,76.2
			c-0.3,0.1-0.5,0.2-0.8,0.3C8,76.7,7.6,76.9,7.6,77c-0.1,0.9,0,1.7,0,2.6c0,0,0.1,0,0.1,0c0.1-0.2,0.2-0.3,0.3-0.6
			c0.3,0.6,0.1,1.4,1,1.3c0-0.7,0-1.4,0-2.1c-0.2,0-0.4,0.1-0.6,0.1C9,77.7,9.3,77.1,9,76.2z M7.6,84.3c1.6-0.1,1.6-0.1,1.5-1.5
			c0-0.3,0-0.5,0-0.8c0-0.1-0.1-0.3-0.2-0.4c-0.4-0.2-0.9-0.4-1.3-0.6C7.6,82.2,7.6,83.2,7.6,84.3z M5.1,92.2
			c0.8,0.4,1.5,0.7,2.2,1.1c0-1-0.1-1.8-0.1-2.9C6.4,91,5.8,91.6,5.1,92.2z M11.1,83.7c0.1-1.5,0-1.6-1.5-1.8c0,0.7,0,1.3,0,2
			C10.2,83.9,10.6,83.8,11.1,83.7z M58.3,87.2c0,1.8,0,3.5,0,5.2c0.1,0,0.1,0.1,0.2,0.1c0.1-0.2,0.2-0.4,0.2-0.6
			c0.1-1.3,0.1-2.5,0.1-3.8C59,87.7,58.9,87.4,58.3,87.2z M39.2,82.1c0,0.7,0,1.3,0,2c0.4,0,0.8,0,1.3,0c-0.1-0.7-0.1-1.3-0.2-1.9
			C39.9,82.1,39.6,82.1,39.2,82.1z M41.2,82.2c0,0.6,0,1.2,0,1.8c0.4,0,0.9,0,1.3,0c-0.1-0.6-0.1-1.2-0.2-1.8
			C41.9,82.2,41.6,82.2,41.2,82.2z M58.8,93c-0.1,0-0.2-0.1-0.3-0.1c-0.5,0.9-0.2,1.9-0.6,2.9c0.5,0,0.8-0.1,1.1-0.1
			C58.9,94.8,58.8,93.9,58.8,93z M44.6,84c-0.1-0.4-0.1-0.7-0.2-1c0-0.3-0.1-0.6-0.1-0.9c-1.2,0.2-1.2,0.3-1,1.9
			C43.7,84,44.1,84,44.6,84z M30.9,82c0,0.7,0,1.3,0,1.9c0.4,0,0.7,0,1,0c0-0.6,0-1.2,0-1.9C31.6,82,31.3,82,30.9,82z M50.8,73.7
			c0.1-0.1,0.1-0.1,0.2-0.2c-0.1-0.2-0.3-0.5-0.4-0.6c-0.9,0-1.7,0-2.6,0c-0.1,0-0.2,0.1-0.3,0.2c0.1,0.1,0.2,0.2,0.3,0.2
			C48.9,73.5,49.8,73.6,50.8,73.7z M27.7,82.3c-1.2-0.1-1.4,0.1-1.1,1.4c0.3,0,0.7,0.1,1.1,0.1C27.7,83.3,27.7,82.8,27.7,82.3z
			 M59.4,85.2c-0.6,0.1-1,0.1-1.5,0.2c0.1,0.6,0.2,1,0.3,1.5C59.3,86.7,59.1,85.9,59.4,85.2z M34.8,86.1c0.5,0,1,0,1.5,0
			c0-0.3,0-0.6,0-0.9c-0.5,0-0.9,0-1.4,0C34.8,85.5,34.8,85.8,34.8,86.1z M32.7,86.1c0.5,0,0.9,0,1.4,0.1c0.2-1.1-0.2-1.3-1.4-0.9
			C32.7,85.5,32.7,85.7,32.7,86.1z M19.7,83.9c-0.6-0.1-1.1-0.1-1.7-0.2c0,0.3,0,0.6,0,0.8c0.6,0.1,1.1,0.1,1.7,0.2
			C19.7,84.4,19.7,84.2,19.7,83.9z M30.7,86c0.5,0,0.9,0,1.3,0c0-0.3-0.1-0.6-0.1-1c-0.4,0-0.8,0-1.2,0C30.8,85.4,30.8,85.7,30.7,86
			z M39.1,86.2c1.3,0.1,1.3,0.1,1.3-0.9c-0.4,0-0.8,0-1.3,0C39.1,85.6,39.1,85.9,39.1,86.2z M38.2,86.2c0-0.3,0-0.6,0-0.9
			c-0.4,0-0.8,0-1.2,0c0,0.3,0,0.6-0.1,0.9C37.4,86.2,37.8,86.2,38.2,86.2z M44.6,85.2c-0.4,0-0.8,0-1.3,0c0.1,0.4,0.2,0.7,0.2,0.9
			C44.7,86.3,44.7,86.2,44.6,85.2z M41.2,85.3c0.2,0.5,0,1.1,0.8,1c0.7-0.1,0.5-0.6,0.5-1C42,85.3,41.6,85.3,41.2,85.3z M46.8,85.1
			c-0.5,0-0.8,0.1-1.1,0.1c-0.1,0.1-0.1,0.1-0.2,0.2c0.2,0.3,0.4,0.7,0.6,0.8C46.8,86.2,46.6,85.6,46.8,85.1z M38.3,39.1
			c0,0,0-0.4,0-0.4 M34.1,38.8 M66.7,45.8 M26.7,39.5 M7.1,77.2c-0.6,0.6-0.5,1.5,0,1.9C7.1,78.5,7.1,77.9,7.1,77.2z M35,38.8
			 M36.2,38.4 M13,44.2c0.1-1-0.1-2.2,0.5-3c0.2,0.2,0.4,0.6,0.4,0.8c0.1,0.3,0.1,0.6,0,1c0,0.6,0,1.3,0,1.9c0,0.8,0,1.6,0.1,2.5
			c0,0.2,0,0.4,0,0.6c0,0.2,0,0.3,0,0.5c0,1-0.1,2-0.1,3c0,0.4-0.1,5.3-0.1,5.3c-0.1,0-0.2,0-0.3,0c-0.1-0.4-0.3-0.8-0.3-1.1
			c0-2.6,0-5.2,0-7.8c0-0.5,0.1-1,0.1-1.5c0-0.5-0.1-0.9-0.2-1.4C13,44.7,12.9,44.4,13,44.2z M10.9,40.3 M9.5,43l-0.1,1.7l-0.3-1.3
			C9.1,42.9,9,42.5,9,42l-0.1-1.3L9,39c0-2.5,0.1-4.9,0.1-7.4c0-0.2,0.1-0.3,0.1-0.5c0.1,0,0.2,0,0.3,0c0,2.9,0,5.8,0,8.7l0.1,1.5
			L9.5,43z M17.4,38.5c0.1-0.8,0.1-1.5,0.2-2.2c0.1,0,0.2,0,0.3,0c0,0.7,0,1.4,0,2.1L17.4,38.5z M13.1,39c-0.3-0.3-0.1-1.9-0.1-2.2
			c0-0.9,0.2-1.7,0.5-2.5c0,0.1,0.4,0.9,0.4,1c0.1,0.4,0.1,0.8,0.1,1.2c0,0.5,0,1,0,1.5c0,0.6-0.2,0.8-0.8,1
			C13.1,39.1,13.1,39.1,13.1,39z M12,40.1c0.1,3.9,0,7.9-0.4,7.9c-0.1,0-0.2,0-0.3,0c-0.4-2.2-0.3-4.4-0.3-6.6c0-2.2,0-4.4,0.1-6.6
			c0-0.7,0.1-1.4,0.2-2.1c0.1,0,0.1,0,0.2,0C11.7,32.8,11.9,36.4,12,40.1z M20,39.2c0,1,0,1.9,0,2.9c-0.1,0-0.2,0-0.2,0
			c0-0.9,0-1.9,0-2.9L20,39.2z M21.7,46.2c0,0-0.1-0.1-0.1-0.3c0-0.2,0-0.4,0-0.7c0-0.7,0-1.4,0-2.1c0-1.6,0-3.3,0.1-4.9
			c0-0.5,0-0.9,0-1.4c0-1,0.1-1.9,0.1-2.9c0.1,0,0.2,0,0.3,0c0.2,0,0.2,4.3,0.2,4.7c0,1.6-0.1,3.2-0.1,4.8c0,0.6,0,1.2,0,1.8
			c0,0.3,0.1,0.6,0,0.9c0,0.2,0,0.1-0.2,0.1C21.9,46.2,21.8,46.2,21.7,46.2z M26.6,39.8c-0.1,0.5-0.2,1-0.3,1.5
			c-1-0.6-0.5-1.6-0.7-2.5l0.1-1c0-1.3-0.3-2.6,0.5-3.9c0.9,1.3,0.1,2.6,0.3,3.8L26.6,39.8z M28.6,38.7c0,0.8,0,1.4,0,2.1
			c0,0.6,0.1,1.3-0.1,1.9c-0.1,0-0.2,0-0.3,0c-0.1-0.9-0.3-1.9-0.4-2.8l0-2.2c0.1-2.2,0-4.3,0.5-6.5c0.1,0.2,0.2,0.2,0.2,0.3
			c0.1,2,0.3,4,0.4,6.1L28.6,38.7z M32.9,39.7c-0.1,2.7-0.3,5.8,0.1,8.5c0,5.3,0.2,10.5-0.5,15.7c0.1-0.8-0.2-1.8-0.3-2.6
			c-0.1-1-0.1-1.9-0.1-2.9c0-1.9,0-3.8,0.1-5.6c0.1-2.3,0.1-4.5,0.1-6.8c0-1.7-0.2-3.3-0.3-4.9c-0.1-2,0-4,0-6
			c0-4.5,0.1-8.9,0.6-13.3C33.3,27.7,33.1,33.7,32.9,39.7z M37.2,48.1c0,0.3,0,0.6,0,1c0,2.4-0.2,4.7-0.3,7.1c-0.1,0-0.3,0-0.4,0
			c-0.4,0-0.4-4.6-0.3-5c0.1-1.7,0.2-3.3,0.2-4.9c-0.1-2.9,0-5.7-0.1-8.6c0-5.1,0-10.1,0.6-15.2c-0.1,0.8,0.2,1.7,0.3,2.5
			c0.1,0.9,0.1,1.9,0.1,2.8c0.1,1.9,0,3.7,0,5.6c0,2.9-0.1,5.8-0.1,8.7C37.1,44,37.2,46.1,37.2,48.1z M39.1,48.2c0,0.5,0,1,0,1.5
			c0,2.5-0.1,5-0.1,7.5c-0.2,0.1-0.3-0.2-0.4-0.4c-0.3-6.6-0.4-13.1-0.2-19.7c0.1-3.9,0.2-7.8,0.3-11.8c0-0.8,0.2-1.6,0.1-2.4
			c-0.5-3.5-0.3-7.1,0-10.6c0-0.2,0.1-0.4,0.2-0.7c0.1,0,0.2,0,0.3,0c0.7,4.3-0.1,8.6,0,12.9C39.5,32.5,39.2,40.4,39.1,48.2z
			 M41.4,48.3c0,3.6,0,7.2-0.5,10.7c-0.4-0.4-0.4-1.1-0.4-1.7c0-5.9-0.1-11.7-0.1-17.6l0-2.1c0-0.3,0-0.5,0-0.7
			c0.1-4.2,0.2-8.5,0.3-12.7c0-0.6,0.2-1.2,0.1-1.7c-0.6-2.2-0.4-4.5-0.1-6.7c0-0.4,0.2-0.7,0.3-1c0.1,0,0.2,0,0.3,0
			c0.1,0.9,0.3,1.7,0.2,2.6c-0.1,2.6-0.2,5.3-0.1,7.9c0.1,2.3,0.1,4.6,0,6.8c0,1.1,0,2.3-0.1,3.4C41.4,39.8,41.4,44,41.4,48.3z
			 M43.7,47.2c0,0.3-0.1,0.5-0.1,0.8c-0.1,2.3-0.1,4.6-0.2,6.9c0,0.3-0.2,0.5-0.2,0.8c-0.1-0.3-0.4-0.5-0.4-0.8
			c-0.1-1.9-0.3-3.9-0.4-5.8c0-0.3,0-0.5,0-0.8c0,0,0-2.5,0-2.5c0.3-5.9,0.1-11.7,0.2-17.6c0-1.6,0.3-3.2,0.4-4.8
			c0.1-2.3,0.1-4.6,0.1-6.9c0-0.1,0.1-0.2,0.1-0.4c0.1,0,0.1,0,0.2,0c0.1,0.4,0.2,0.9,0.2,1.3c0.3,2.8-0.1,5.5,0.1,8.3
			c0.2,3.8-0.1,7.6-0.2,11.3c0,0.2,0,0.5,0,0.8c0,2.6,0.2,5.2,0.2,7.8L43.7,47.2z M53.4,46.9 M54.1,46.8c0,0.1,0,0.1,0,0.2l-0.1,0.9
			c-0.1,0.5-0.2,1-0.4,1.6c-0.1,0-0.2,0-0.2,0c-0.1-0.5-0.2-1.1-0.3-1.6l0.2-2.3c0.1-0.6,0.1-1.2,0.2-1.7c0.1,0,0.2,0,0.2,0
			c0.1,0.6,0.2,1.1,0.4,1.7L54.1,46.8z M51.9,40.1c0,1.8,0,3.6,0,5.5l-0.1,2.1c0,1-0.1,1.9-0.1,2.9c0,0.2-0.1,0.4-0.1,0.6
			c-0.1,0-0.1,0-0.2,0c-0.4-1-0.3-2.2-0.4-3.3l0-2.3c0.1-1.7,0.2-3.3,0.3-4.8c0-0.4,0-0.8,0-1.3L51.9,40.1z M46.9,39.3
			c-0.3-0.8-0.1-2.1-0.1-2.7c0-1,0-2,0-3.1c0-2,0-4.1,0-6.1c0-2.5,0.1-5,0.2-7.6c0-1.4,0.1-2.9,0.2-4.3c0-0.3,0.1-0.5,0.2-0.8
			c0.1,0,0.1,0,0.2,0c0.1,0.4,0.2,0.7,0.2,1.1c0,1.7-0.1,3.3-0.1,5c0,0.6-0.1,1.1,0,1.7c0.1,1.3,0.3,2.6,0.3,3.9
			c0,3.3-0.2,6.6-0.3,9.9c0,0.9,0,1.7,0,2.6c0,0.4-0.1,0.8-0.2,1.1C47.2,39.9,47,39.6,46.9,39.3z M35,47.2c0,1.3,0.1,2.6,0.1,3.8
			c-0.1,3.9-0.2,7.8-0.2,11.8c-0.1,0-0.3,0-0.4,0c-0.4-2.4-0.4-4.9-0.4-7.3c0-2.3,0.1-4.6,0-6.9c-0.2-3,0-5.9,0-8.9c0,0,0-2.1,0-2.1
			c0-3.7,0-7.3,0.6-10.9c0.6,3.6,0.4,7.3,0.4,11c0,0-0.1,2.1-0.1,2.1C34.8,42.2,34.9,44.7,35,47.2z M32.3,47.3c0-0.1,0-0.2,0-0.2
			 M31,47c0,0.1,0,0.2,0,0.3 M64.7,45.7c-0.2,6.6-0.2,13.3-0.4,19.9c0,0.6,0,1.3,0,1.9c0,0.2-0.2,0.4-0.3,0.6
			c-0.1-0.2-0.3-0.4-0.3-0.6c-0.1-5.3-0.2-10.6-0.3-15.9c0-1.9,0-3.8,0-5.7l0.1-1.3c0-1.4,0-2.7,0-4.1l0-1.4c0-0.3,0-0.5,0-0.7
			c0-2.5,0.1-5,0.2-7.4c0.1-3.7,0.4-7.4,0.6-11.1c0-0.2,0.1-0.4,0.2-0.6c0.2,0.1,0.2,0.2,0.2,0.3c0.1,1.5,0.2,2.9,0.3,4.4
			c0,4.9,0,9.8,0,14.7c0,0-0.1,1.5-0.1,1.5C64.8,42,64.8,43.9,64.7,45.7z M66.7,46.2c0,3.2,0,6.4,0,9.5c0,3.2-0.2,6.4-0.2,9.5
			c-0.1,3.1-0.2,6.2-0.2,9.5c-0.3-0.2-0.4-0.2-0.4-0.2c-0.7-8.4-0.4-16.9,0-25.3c0.1-1.6,0.2-3.2,0.2-4.8c0-1.6-0.3-3.1-0.2-4.7
			c0-1.4,0-2.8,0-4.2c0-1.9,0-3.8,0.1-5.8c0-1.9,0.1-3.8,0.2-5.8c0.1-0.9,0.1-1.9,0.2-2.8c0-0.5,0.1-0.9,0.1-1.4
			c0-0.2,0.3-1.2,0.2-1.4c0.2,0.3,0.3,0.5,0.3,0.8c0.1,1.6,0.2,3.2,0.2,4.7c-0.1,4.8-0.2,9.7-0.3,14.5C66.7,41,66.6,43.6,66.7,46.2z
			 M68.6,45c-0.1,5.8-0.1,11.6-0.2,17.4c0,0,0,0.1,0,0.1c0,0.2-0.1,0.3-0.1,0.5c-0.1,0-0.2,0-0.2,0c-0.4-5.6-0.2-11.3,0-16.9l0-2.2
			c0-0.9,0-1.7,0-2.6l0-1.3c0-3.4,0-6.8,0-10.2c0-3.4,0.1-6.8,0.5-10.2c0.1,0.1,0.1,0.2,0.1,0.3c0.1,2.3,0.2,4.5,0.1,6.8
			c0,2.3-0.1,4.5-0.1,6.8c0,1.2-0.1,2.3-0.1,3.5C68.7,39.7,68.7,42.4,68.6,45z M70.8,43.7c-0.1,3.8-0.1,7.6-0.2,11.4
			c-0.1,3.8-0.1,7.6-0.2,11.5c-0.1,0-0.2,0-0.2,0c-0.1-7.5,0-15,0.2-22.6l0.2-2c0,0.3,0.1,0.5,0.1,0.8L70.8,43.7z M71.1,41.7l0-0.5
			c0.3-11,0.7-21.9,1-32.8c0-0.2,0-0.5,0.1-0.7c0-0.1,0.1-0.1,0.1-0.2c0,0,0,0,0.1,0c0,0,0,0,0.2,0c0,2.4,0,4.9,0,7.4
			c0.1,0,0.1,0,0.2,0c0.1-0.4,0.2-0.8,0.3-1.4c0.1,0.3,0.1,0.4,0.1,0.5c0,1.2,0.2,2.4,0.1,3.5c-0.2,1.7,0.2,3.4-0.5,5
			c-0.2,0.6,0,1.3,0,2c0,0.1,0.1,0.2,0.1,0.3c0.5,0.2,0.4,0.5,0.3,0.9c-0.1,0.5-0.4,1-0.4,1.5c0,1.4,0.3,2.8,0.3,4.2
			c0,6.7-0.1,13.3-0.2,20c-0.1,4.5-0.2,9.1-0.3,13.6c0,0.2,0,0.4-0.1,0.5c-0.6,0.8-0.2,1.6-0.3,2.5c0,0.1,0.1,0.3,0.1,0.3
			c0.5,0.2,0.4,0.6,0.3,0.9c-0.1,0.3-0.4,0.6-0.4,0.9c-0.1,0.9,0,1.8,0,2.8c0.1-0.2,0.1-0.3,0.2-0.4c0.1,0.3,0.2,0.6,0.2,0.9
			c0,3.5,0,7,0,10.5c0,0.9-0.5,2,0.7,2.7c-0.4,0.2-0.6,0.3-0.9,0.4c0.2,1.9-0.5,3.9,0.5,5.7c-0.3,0.1-0.5,0.1-0.7,0.1
			c-0.4-0.5-0.8-0.9-1.1-1.4c-0.1-0.2-0.1-0.5-0.2-0.7c0.2,0,0.5,0,0.7,0c0.1,0,0.1,0,0.2,0c0-1.3,0-2.5,0-3.8
			c0-0.1-0.1-0.3-0.2-0.4c-0.4-0.2-0.8-0.4-1.3-0.7c0,2.6,0,5.1,0,7.7c0.2,0,0.5-0.1,0.7-0.1c0.3,0,0.5,0.1,0.8,0.1
			c-0.5,0.9-3.2,1.7-4.2,1.3c0-4.1,0-8.3,0-12.5c-0.5,0.1-0.9,0.3-1.5,0.5c0.3,0.1,0.5,0.1,0.6,0.1c-0.1,0.2-0.3,0.5-0.2,0.6
			c0.4,2.3,0.1,4.6,0,6.9c0,0.5,0,0.9,0.4,1.3c0.5,0.6,0.6,1.2,0.3,1.7c-0.2-0.4-0.4-0.9-0.5-1.3c-0.4,1.4-0.3,2.1,0,2.1
			c-0.1,1.4-1.3,1.3-2.2,1.6c-2.2,0.7-4.4,1.4-6.7,1.9c-6,1.2-12.1,1.4-18.2,1.4c-0.1,0-0.2,0-0.4,0c0-0.1,0-0.1,0-0.2
			c7-0.3,14.1-0.4,20.9-2.1c-3.3,0.1-6.6,1-10,0.8c-3.2-0.2-6.4,0.1-9.6,0.1c-0.2,0-0.5-0.1-0.7-0.1c0-0.1,0-0.2,0-0.3
			c1.7-0.1,3.3-0.3,4.9-0.4c0.1-0.3,0.2-0.7,0.3-1c0.1,0,0.1,0,0.2,0c0,0.3,0.1,0.6,0.1,1c1.7-0.1,3.4-0.2,5.1-0.3
			c0.1,0,0.2-0.2,0.3-0.3c0.2-0.2,0.4-0.4,0.6-0.6c0.2,0.2,0.4,0.4,0.7,0.7c0.8-0.1,1.9-0.1,2.8-0.2c0-3,0-6,0-9
			c-0.2,0-0.4-0.1-0.7-0.1c-0.1,2.3-0.3,4.5-0.4,6.7c0.2,0,0.4,0.1,0.8,0.1c-0.5,0.2-0.8,0.3-1.1,0.4c-3.1,0.3-6.2,0.6-9.3,0.8
			c-0.5,0-1,0-1.1,0.9c-0.2-0.4-0.3-0.6-0.4-0.8c-0.3,0-0.6,0-1,0c-0.3,0-0.8,0-0.9-0.2c-0.1-0.4,0-0.8,0-1.2c0.1,0,0.2,0,0.3,0
			c0,0.4,0,0.7,0.1,1.2c0.6-0.1,1.3-0.3,2-0.4c0.4,0.5,1.1,0,1.8,0.1c-1.1-2.7-0.2-5.4-0.3-8c-0.4,0-0.7,0-1,0
			c-0.1,1.1-0.1,2.1-0.2,3.1c-0.1,1.1-0.1,2.2-0.2,3.3c0,0.2-0.2,0.4-0.2,0.5c-0.2-0.1-0.3-0.3-0.4-0.4c-0.1-0.1-0.1-0.3-0.1-0.4
			c-0.1-1-0.2-1.9-0.2-2.9c0-1.1,0-2.1,0-3.2c-0.5-0.1-0.8,0-0.8,0.7c0,1.2-0.1,2.4-0.2,3.6c0,0.5-0.1,1-0.1,1.5c-0.1,0-0.2,0-0.4,0
			c-0.8-1.9-0.4-3.9-0.4-5.9c-0.4,0-0.8,0-1.3,0c0,1.8,0,3.5,0,5.3c-0.1,0-0.2,0-0.3,0c-0.1-0.3-0.2-0.5-0.2-0.8
			c-0.1-1.3-0.2-2.6-0.2-4c0-0.5-0.2-0.7-0.6-0.6c-0.2,0-0.4,0-0.8,0.1c0,1.3,0,2.6,0,3.9c-0.1,0-0.2,0-0.3,0
			c-0.4-1.3-0.2-2.6-0.3-3.9c-0.5,0-1,0-1.5,0c0,0.8-0.1,1.6-0.1,2.4c-0.1,0-0.2,0-0.2,0c-0.1-0.5-0.2-1-0.2-1.6c-0.1-1-0.1-1-1-1
			c-0.2,0-0.3,0-0.5,0c0,0.4-0.1,0.7-0.1,1.1c-0.1,0-0.2,0-0.2,0c-0.1-0.4-0.2-0.8-0.4-1.2c-0.4,0-0.8,0-1.3-0.1
			c-0.1,0.8-0.2,1.5-0.2,2.2c-0.1,0-0.1,0-0.2,0c0-0.3-0.1-0.5-0.1-0.8c0-0.9-0.1-1.7-1.3-1.7c0.3,0,0.7-0.1,1-0.1
			c0.1-1.1,0-1.2-1.4-1c0,1.2,0,2.5,0,3.8c-0.1,0-0.2,0-0.3,0c-0.5-1.2-0.3-2.6-0.5-3.9c-0.4,0-0.8,0-1.3-0.1
			c0.1,0.5,0.1,0.9,0.2,1.3c-0.1,0.4-0.2,0.9-0.4,1.5c-0.3-0.6-0.4-1.2-0.7-1.4c-0.3-0.3-0.9-0.2-1.4-0.3c0-0.1,0-0.1,0-0.2
			c0.5,0,1,0,1.7,0c-0.2-0.4-0.3-0.9-0.5-0.9c-1-0.2-2.1-0.2-3.2-0.4c0,0.6,0,1.1-0.1,1.7c0.6,0,1.1,0,1.6,0c0,0.1,0,0.1,0.1,0.2
			c-0.3,0.1-0.5,0.4-0.8,0.4c-0.8,0.1-0.9,0.5-0.9,1.2c0,0.5,0,0.9,0,1.4c-0.1,0-0.2,0-0.3,0c-0.1-0.8-0.2-1.5-0.2-2.3
			c-1.1,0-2.2,0.3-3.4-0.1c1.1-0.9,2.3-0.7,3.4-0.8c0-0.6,0-1.2,0-1.8c-0.5-0.1-1-0.1-1.4-0.2c0,0.3,0,0.6,0,0.8
			c0.5,0.1,0.9,0.3,1.3,0.4c0,0.1,0,0.2-0.1,0.3c-1.2-0.2-2.4-0.4-3.7-0.6c-0.4-0.9-0.3-3.4,0.3-4.2c0.1,0.8,0.1,1.5,0.2,2.3
			c0.5,0.1,1,0.1,1.5,0.2c0-3.1,0-6.1,0-9.2c-0.3,0-0.5,0.1-0.7,0.1c-0.8,0-0.9,0.3-0.9,1.1c0,1.6-0.1,3.1-0.1,4.7
			c0,0.2,0,0.4-0.1,0.5c-0.1,0-0.2,0-0.3,0c0-2,0-4,0-6.1c-1.2,0.2-2.2,0.4-3.1,0.6c-0.1,0-0.3,0.3-0.4,0.5
			c-0.1,2.1-0.1,4.2-0.2,6.3c0,0.4,0.1,0.6,0.5,0.7c0.8,0.2,1.5,0.4,2.3,0.6c0.2,0.1,0.4,0.2,0.6,0.3c0,0.1-0.1,0.1-0.1,0.2
			c-1.1-0.2-2.2-0.3-3.3-0.5c-0.1,0.7-0.1,1.2-0.2,1.8c-0.1,0-0.1,0-0.2,0c-0.1-0.2-0.1-0.5-0.3-0.6c-0.6-0.4-0.5-0.8,0-1.3
			c-0.6-0.1-1-0.2-1.6-0.4c0,1.2,0,2.4,0,3.5c-0.1,0-0.2,0-0.3,0c-0.1-0.5-0.2-1.1-0.2-1.7c-0.5,0.2-0.9,0.3-1.3,0.5
			c-0.1,0-0.2,0.2-0.2,0.3c0,1.1,0,2.1,0,3.2c1-0.2,1.9-0.3,2.8-0.5c0.1,0.1,0.1,0.1,0.2,0.2c-0.8,0.6-0.7,1.4-0.6,2.3
			c0.5-0.3,1-0.5,1.5-0.7c-0.2-1.4-0.2-2.7,0.2-4.1c0.6,1.3,0.1,2.6,0.2,3.9c0.9-0.3,1.7-0.6,2.7-0.9c-0.1,0.2-0.1,0.3-0.2,0.3
			c-1.4,0.6-2.7,1.2-4.1,1.8c-0.4,0.2-0.5,0.4-0.5,0.8c0,0.6,0.1,1.2,0.7,1.6c0.2,0.2,0.3,0.4,0.5,0.7c-1.6-0.1-1.9-1.1-1.7-2.4
			c-0.9,0.9-0.9,1.5-0.3,2.3c0.7,0.9,1.7,0.8,2.7,1.1c-0.2-0.3-0.3-0.5-0.5-0.9c0.3,0.1,0.5,0.1,0.6,0.1c0.4,0.3,1.3,0,1.1,1
			c0.4,0.2,0.8,0.4,1.3,0.6c-0.2,0.2-0.3,0.2-0.4,0.3c0.2,0.1,0.3,0.3,0.5,0.4c0,0.1-0.1,0.1-0.1,0.2c-2.2-0.7-4.4-1.3-6.6-2
			c0-0.1,0-0.2,0-0.2c0.4-0.1,0.7-0.2,1.1-0.2c-0.8-1.3-0.9-2,0-2.7c0.8-0.7,0.7-1.5,0.7-2.4c-0.4,0.1-0.8,0.2-1.1,0.2
			c-0.5,0.1-0.8,0-0.8-0.7c0-1.1-0.1-2.3-0.2-3.5c-0.4,0.1-0.7,0.2-1,0.3c-0.5,0.1-0.6,0.3-0.6,0.8c0,1.1,0,2.2,0,3.3
			c0.2,0.1,0.3,0.1,0.5,0.1c-0.2,0.4-0.5,0.8-0.5,1.2c-0.1,1,0,2.1,0,3.3c-0.7-0.1-1.4-0.2-2.1-0.3c0.1,0.7,0.4,1.1,1,1.3
			c1.8,0.6,3.5,1.4,5.4,1.9c6,1.6,12.2,2.2,18.4,2.6c6.9,0.4,13.8,0.4,20.7-0.1c5.4-0.4,10.7-1.2,15.9-2.5c1.7-0.4,3.4-1,4.9-2
			c0.1-0.5,0.2-1,0.5-1.4c0.1-0.2,0.4-0.2,0.7-0.3c0,0.3,0.1,0.5,0.1,0.8c0,0.1-0.1,0.2-0.1,0.3c0,0,0.1,0,0.1,0.1
			c0.5-0.5,1-0.9,1.6-1.5c-0.5,0-0.7,0.1-1.2,0.1c0.2-0.4,0.3-0.8,0.5-0.9c0.3,0,0.6,0.2,1,0.3c0.4-0.6,0.8-1.4,0.8-2.3
			c0.1-4.8,0.2-9.5,0.2-14.3c0.2-12.2,0.3-24.4,0.5-36.5c0.1-5.9,0.1-11.8,0.2-17.7c0.1-5.3,0.1-10.7,0.2-16c0-1.8-0.2-2.2-2-2.6
			c-0.9-0.2-1.9-0.4-2.8-0.4c-5.8-0.4-11.6-0.9-17.4-1c-9-0.2-18.1-0.2-27.1-0.2c-7.1,0-14.2,0.3-21.2,1.1C5,2.6,3.8,2.9,2.5,3.2
			c-1,0.2-1.2,0.7-1.2,1.6c0,1,0,1.9,0,2.9C1.3,18.2,1.4,28.6,1.4,39c0.1,14,0.2,28.1,0.3,42.1c0,2.8,0,5.5,0.1,8.3
			c0,1.9,1.1,3.2,2.6,4.2c0.1-1.3-1.4-1.2-1.9-2.3c0.7,0.2,1.3,0.3,1.9,0.5c0.1-0.3,0.4-0.7,0.3-1.1c-0.1-6.7-0.2-13.3-0.2-20
			c0-6.2,0.1-12.4,0.1-18.7c0-0.3,0-0.5,0.1-0.8c0.1,0,0.1,0,0.2,0C5.3,62.7,5,74,5.2,85.3c0.5-0.2,1-0.5,1.5-0.6
			C7,84.6,7.1,84.4,7.1,84c0-0.9,0-1.8,0-2.6c0-0.3-0.2-0.7-0.5-0.9c-0.8-0.7-1.3-1.4-1.3-2.6c0.1-0.8,0-1.6,0-2.4
			c0-6.2,0-12.5,0-18.7c0-12.7,0-25.5,0.1-38.2c0-0.2,0.2-0.4,0.3-0.7c0.1,0.2,0.3,0.4,0.3,0.6c0.2,3.2,0.3,6.4,0.4,9.7
			c0.1,4.1,0.1,8.1,0.2,12.2c0,0.2,0,0.4,0.1,0.6l0.2,4c-0.1,0-0.1,0-0.2,0c0,10.6,0,21.2,0,31.7c0.1,0,0.2,0,0.3,0
			c0.1-2.6,0-5.2,0-7.8c0-2.6,0-5.2,0-7.8c0.1,0,0.3,0,0.4,0c0,5,0,10,0,15.1C7.8,76,8,75.8,8.2,75.8c0.8-0.2,1-0.8,1-1.6
			c0-4.3,0-8.7,0-13c0-2.2,0-4.4,0-6.7c0.1,0,0.2,0,0.4,0C9.8,61.4,9.6,68.2,9.7,75c1.4-0.3,1.4-0.3,1.4-1.6c0-1.8,0.1-3.6,0.1-5.4
			c0-0.7,0.1-1.5,0.2-2.2c0.1,0,0.2,0,0.3,0c0.1,2.8,0.2,5.7,0.2,8.5c1.2-0.1,1.2-0.1,1.2-1.3c0-0.5,0.1-1,0.1-1.5
			c0-0.4,0.1-0.9,0.2-1.3c0.1,0,0.2,0,0.3,0c0.1,1.2,0.2,2.3,0.4,3.5c1.1-0.2,2.2-0.4,3.3-0.6c0.1-0.7,0.2-1.5,0.2-2.2
			c0.1,0,0.2,0,0.2,0c0.1,0.7,0.2,1.3,0.2,2.1c0.6-0.1,1.1-0.2,1.6-0.2c0-4.2,0-8.3,0-12.4c0.1,0,0.2,0,0.3,0c0,4.1,0,8.2,0,12.4
			c0.6-0.1,1.2-0.2,1.8-0.2c-0.2-4.8-0.2-9.6,0.2-14.4c0.5,4.7,0.1,9.5,0.2,14.3c2.7-0.2,5.3-0.4,8-0.5c0-1.8,0-3.6,0-5.3
			c0.1,0,0.2,0,0.3,0c0.4,1.7,0.3,3.6,0.4,5.5c0.6-0.2,1.1-0.4,1.6-0.4c0.5,0,1,0.2,1.5,0.3c0.2-1.2,0.3-2.3,0.4-3.4
			c0.1,0,0.3,0,0.4,0c0.1,1.1,0.2,2.2,0.3,3.2c0.4,0,0.8,0,1.2,0c0.1-0.5,0.2-0.9,0.3-1.3c0.1,0,0.1,0,0.2,0
			c0.1,0.2,0.2,0.5,0.2,0.7c0,0.8,0.6,0.6,1,0.6c0.6,0.1,0.5-0.3,0.6-0.7c0-0.6,0.1-1.2,0.1-1.8c0.1,0,0.2,0,0.2,0
			c0.1,0.6,0.2,1.2,0.1,1.8c0,0.6,0.2,0.7,0.7,0.7c0.2,0,0.4,0,0.6,0c0.1-1.1,0.3-2.1,0.4-3.1c0.1,0,0.2,0,0.3,0
			c0.1,1,0.3,2.1,0.4,3.2c0.3,0,0.6,0,0.9,0c0.1-1.6,0.1-3.2,0.6-4.7c0.1,0,0.2,0,0.4,0c0.2,1.6,0.3,3.2,0.5,4.8
			c0.1,0,0.1,0.1,0.2,0c0.5-0.1,1.1-0.4,1.3-0.2c0.5,0.4,1,0.3,1.5,0.4c0.6,0.1,1.3,0.1,1.9,0.1c0.7,0.1,1.5,0.1,2.2,0.2
			c0.1-1.7-0.1-3.3,0.7-4.9c0.2,0.8,0.4,1.6,0.4,2.3c0,0.8-0.1,1.6-0.1,2.5c0.3,0,0.5,0,0.7,0c0.2,0,0.4,0,0.6,0
			c-0.3-4.5-0.4-9,0.4-13.4c0.1,0,0.2,0,0.4,0c0.9,4.4,0,8.9,0.1,13.5c0.9,0.1,1.8,0.2,2.8,0.2c0-0.3,0-0.6,0-0.8c0.1-1,0.1-2,0.3-3
			c0.2-1.1,0.3-2,0.1-3.1c-0.2-1.6,0-3.2,0.2-4.8c0-0.4,0.3-0.8,0.5-1.2c0.1,0,0.2,0,0.3,0c0.2,0.5,0.4,0.9,0.5,1.4
			c0.1,0.9,0,1.7-0.1,2.6c-0.1,1.6-0.5,3.3,0.2,4.9c0.1,0.2,0.1,0.5,0.1,0.8c0,1-0.1,2.1-0.1,3.1c0,0.5,0.1,0.6,0.5,0.5
			c0.1,0-0.1-5.7-0.2-6.3c0-2.1,0-4.3,0-6.4c0-2.5,0.1-5,0.2-7.5c0.1-1.7,0.3-3.4,0.4-5.1c0.1-1.7-0.1-3.2-0.2-4.9
			c-0.1-1.2-0.1-2.3-0.2-3.5c-0.3,1.9-0.3,3.8-1.1,5.6C57,43.2,57,41.2,57,39.1l0-0.8c0-0.1,0-0.2,0-0.3c0.2-4.5,0.4-9,0.6-13.5
			c0-0.3,0.2-0.6,0.4-0.9c0.2,0.3,0.4,0.5,0.6,0.8c0,0.1,0,0.2,0.1,0.3c0.2,1.5,0.4,3.1,0.5,4.5c0.2-2.9,0.2-5.8,0.9-8.7
			c0.1,0,0.2,0,0.3,0c1.2,6,0.3,12,0.3,18.1l-0.1,1c0,1.8,0,3.6,0,5.4c0,0.7-0.1,1.3-0.1,2c0,3.5,0.3,7,0.3,10.5
			c-0.1,5.1-0.3,10.1-0.5,15.2c0,1,0,1,1,1C61,73.6,61,61.9,61,60.9c0-3,0.2-5.9,0.4-8.8c0.1-1.4,0.3-2.9,0.2-4.3
			c-0.1-2,0-3.9,0.1-5.9c0.1-2.3-0.1-4.6-0.2-7c-0.2-4-0.2-8.1,0.2-12.1c0.1-1.2,0.3-2.4,0.8-3.4c0.8,3,0.6,6.2,0.5,9.4
			c-0.1,2.3-0.2,4.6-0.3,6.9c0,1-0.1,2,0,3c0.1,0.9,0.2,1.8,0.2,2.7c0.1,2.2-0.3,4.4-0.3,6.5c0,2.1,0.2,4.3,0.2,6.4
			c-0.1,6.3-0.3,12.5-0.5,18.8c0,0.9,0,0.9,0.9,0.9c0-0.3,0-0.6,0-0.9c0.1-0.7,0.2-1.4,0.4-2c0-0.2,0.3-0.5,0.5-0.4
			c0.2,0,0.5,0.3,0.5,0.5c0.1,0.4,0.2,0.8,0.1,1.1c-0.1,0.7-0.2,1.4-0.3,2c2.1,0.9,4.2,1.7,6.3,2.5c0.2-10.9,0.3-22,0.5-33V41.7z"/>
		<path class="st1" d="M59.8,5.9c0.1-1,0.2-1.8,0.3-2.7c0.1,0,0.2,0,0.3,0c0.1,0.8,0.1,1.7,0.2,2.6c0.4,0,0.8,0,1.3,0
			C62,4.8,62,3.9,62.1,3c-0.5,0-1-0.1-1.5-0.1c0-0.1,0-0.2,0-0.2c2.2-0.1,4.5,0.1,6.7,0.5c0,0.1,0,0.2,0,0.3
			c-1.6-0.1-3.1-0.2-4.7-0.3c0,0.9,0.1,1.7,0.1,2.6c0.5,0,1,0,1.4,0c0-0.5,0.1-1,0.1-1.4c0.1,0,0.2,0,0.3,0c0,0.4,0,0.9,0,1.3
			c0.6,0,1.1,0,1.6,0c0-0.4-0.1-0.7,0-1c0.1-0.2,0.3-0.4,0.4-0.6C66.8,4.2,67,4.4,67,4.6c0.1,0.2,0,0.5,0,0.9c2.3-0.1,4.6-0.4,6.9-1
			C74,4.6,74,4.6,74,4.7c-0.3,0.1-0.7,0.4-1,0.4c-1.9,0.3-3.9,0.8-5.8,0.9c-6,0.4-12,0.8-18.1,0.9C42.6,7.1,36,7.1,29.5,7
			C23,6.8,16.5,6.3,10,5.9C8.2,5.8,6.5,5.4,4.7,5.1C4.5,5,4.3,4.9,4.2,4.7C5.1,4.9,6,5,6.9,5.1C6.9,4.7,7,4.4,7,4c0.1,0,0.2,0,0.2,0
			c0,0.3,0,0.6,0.1,1c0.5,0,0.9,0.1,1.4,0.1c0-0.3,0-0.6,0.1-0.8C9,4.3,9.1,4.1,9.3,4c0.1,0.2,0.3,0.3,0.4,0.5c0.1,0.2,0,0.5,0,0.7
			c0.4,0,0.7,0.1,1,0.1c0-0.1-0.1-0.1-0.1-0.2c0.3-0.3,0.6-0.7,0.9-1c0.2,0.3,0.5,0.7,0.7,1c0,0.1-0.1,0.1-0.1,0.2
			c0.3,0,0.6,0,0.9,0c0,0-0.1-0.1-0.1-0.1C13,5,13.3,4.7,13.5,4.5C13.8,4.7,14,5,14.2,5.3c0,0.1-0.1,0.1-0.1,0.2
			c0.3,0,0.5,0,0.9,0.1c0-0.5,0-0.9,0.1-1.3c0.1-0.3,0.4-0.5,0.6-0.8c0.2,0.3,0.5,0.5,0.6,0.8c0.1,0.4,0,0.8,0,1.2
			c0.3,0,0.5,0,0.7,0c0.1-0.5,0-1,0.2-1.5c0.1-0.3,0.4-0.5,0.6-0.8c0.2,0.3,0.5,0.5,0.6,0.8c0.1,0.5,0.1,1,0.1,1.5
			c0.4,0,0.8,0,1.2,0.1c0.1-0.8,0.1-1.5,0.2-2.2c0.1,0,0.2,0,0.3,0c0,0.7,0.1,1.4,0.1,2.2c1.1,0,2.1,0,3.2,0
			c0.1-0.4,0.1-0.9,0.2-1.4C23.7,4.2,24,4,24.2,3.8c0.2,0.2,0.4,0.4,0.5,0.7c0.1,0.2,0.1,0.5,0.1,0.7c0,0.8,0,0.8,0.9,0.7
			c0.1-0.6,0.3-1.3,0.5-2.1C27,4.5,26.6,5.2,26.8,6c1,0,2,0,3,0c0.1-0.5,0.1-1,0.2-1.4c0.1-0.2,0.3-0.4,0.5-0.6
			C30.7,4.1,31,4.3,31,4.6c0.1,0.5,0.1,1,0.1,1.5c0.2,0,0.4,0,0.6,0c0.1-0.5,0.1-1,0.2-1.4c0.1-0.3,0.4-0.4,0.6-0.7
			c0.2,0.2,0.5,0.4,0.6,0.7c0.1,0.4,0.1,0.9,0.1,1.4c0.5,0.2,0.7,0.1,0.7-0.5c0-0.4,0.1-0.7,0.2-1.1c0.1-0.2,0.3-0.4,0.5-0.5
			c0.2,0.2,0.5,0.4,0.5,0.6c0.1,0.5,0.1,1,0.1,1.6c0.3,0,0.5,0,0.8,0c0-0.4,0-0.8,0.1-1.2c0.1-0.3,0.4-0.6,0.5-1
			c0.2,0.3,0.4,0.6,0.5,1c0.1,0.3,0,0.7,0,1.2c0.4,0,0.7,0,1,0c0.1-0.7,0.3-1.4,0.4-2.2c0.9,0.6,0.6,1.4,0.8,2.2c0.3,0,0.7,0,1,0
			c0.1-0.7,0.3-1.5,0.4-2.2c0.9,0.6,0.6,1.4,0.7,2.2c0.3,0,0.7,0,1,0c0.1-0.7,0.3-1.5,0.5-2.4c0.8,0.8,0.5,1.6,0.7,2.4
			c0.3,0,0.7,0,1,0c0.1-0.7,0.3-1.5,0.4-2.3c0.5,0.4,0.5,0.4,0.7,2.3c0.3,0,0.7,0,1.1,0c0.2-0.8-0.2-1.6,0.5-2.3
			c0.7,0.6,0.4,1.5,0.5,2.3c0.3,0,0.6,0,1,0c0.3-0.7-0.1-1.7,0.6-2.3C50,4.1,50,4.1,50.1,6.1c0.3,0,0.7,0,0.9,0
			c0.3-0.4,0.5-0.7,0.8-1c0.2,0.3,0.4,0.6,0.6,0.8c0,0.1-0.1,0.1-0.1,0.2C54.8,6,57.3,6,59.8,5.9z"/>
		<path class="st1" d="M74,91.3c0-0.2-0.1-0.4-0.1-0.6c0-0.8,0-1.7,0-2.5c0-0.3-0.2-0.5-0.2-0.8c0-0.2-0.1-0.4,0-0.6
			c0.1-0.4,0.3-0.7,0.3-1.1c0.2-14.8,0.3-29.7,0.4-44.5c0.1-8.4,0.3-16.8,0.5-25.2c0-1.5,0.1-2.9,0.2-4.4c0-0.1,0-0.3,0.2-0.4
			c0.1,26.7-0.5,53.5-0.9,80.2C74.2,91.3,74.1,91.3,74,91.3z"/>
		<path class="st1" d="M3.1,91c0-1.1,0-2.2,0-3.4c-0.3,0-0.4,0-0.5-0.1c-0.2-0.1-0.4-0.2-0.4-0.3c0-0.2,0.1-0.5,0.3-0.5
			c0.6-0.2,0.5-0.6,0.5-1C2.8,75.3,2.7,64.9,2.6,54.6c0-6.8-0.1-13.7,0-20.5c0-5.4,0.1-10.7,0.1-16.1c0-0.2,0-0.4,0.1-0.6
			c0.5,12.3,0.5,24.5,0.5,36.8c0,12.3,0.1,24.5,0.1,36.8C3.4,91,3.2,91,3.1,91z"/>
		<path class="st1" d="M3.3,4c0.4-0.2,0.8-0.4,1.2-0.5c2.3-0.4,4.5-0.8,6.8-1C18,1.9,24.8,1.8,31.6,2.1c0.2,0,0.5,0.1,0.7,0.1
			c0,0.1,0,0.1,0,0.2c-0.5,0.1-0.9,0.1-1.4,0.2c-5,0.2-10,0.3-15,0.6C12.2,3.3,8.6,3.7,4.9,4C4.4,4,4,4.2,3.5,4.3
			C3.5,4.3,3.5,4.2,3.3,4z"/>
		<path class="st1" d="M45,37.2c-0.1-0.9-0.4-1.7-0.4-2.6c0-1.8,0-3.6,0.1-5.4c0.1-2.2,0.2-4.5,0.3-6.7c0-0.2,0.2-0.4,0.3-0.6
			c0.1,0.2,0.4,0.4,0.4,0.6c0.1,0.8,0.3,1.7,0.3,2.5c-0.1,3.6-0.2,7.1-0.3,10.7c0,0.5-0.2,1.1-0.3,1.6C45.3,37.2,45.2,37.2,45,37.2z
			"/>
		<path class="st1" d="M51.5,33.1c-0.1-0.3-0.3-0.6-0.3-1c0-2.5,0-5.1,0.1-7.6c0-0.5,0-0.9,0-1.4c0-2.1,0.1-4.3,0.2-6.4
			c0-0.2,0.1-0.3,0.1-0.5c0-0.1,0.1-0.1,0.3-0.2c0.1,0.7,0.2,1.4,0.3,2c0,0.5,0,1.1-0.1,1.6c0,1.7,0,3.3,0,5
			c-0.1,2.7-0.2,5.5-0.3,8.2c0,0.1,0,0.1-0.1,0.2C51.7,33,51.6,33,51.5,33.1z"/>
		<path class="st1" d="M49.8,28.9c-0.7-0.2-0.8-0.7-0.8-1.1c0-0.6,0-1.3,0-1.9c0-0.8,0.1-1.6,0.1-2.4c0.1-3,0.2-6,0.3-9
			c0-0.4,0.1-0.7,0.2-1.1c0.1,0,0.1,0,0.2,0c0.1,0.7,0.3,1.4,0.3,2.1c0,2.4-0.1,4.8-0.1,7.2c0,0.9,0.2,1.8,0.2,2.7
			C50,26.5,49.9,27.7,49.8,28.9z"/>
		<path class="st1" d="M15.6,34.8c-0.6-1-0.7-12.3-0.1-14.6C16.1,20.9,16.1,33.8,15.6,34.8z"/>
		<path class="st1" d="M34.2,96.8c0.1-0.3,0.2-0.6,0.3-0.9c0.1,0,0.1,0,0.2,0c0,0.3,0.1,0.5,0.1,0.9c0.5,0,0.9,0.1,1.5,0.1
			c0.1-0.4,0.2-0.7,0.2-1c0.1,0,0.2,0,0.2,0c0,0.3,0.1,0.7,0.1,1c0.3,0.1,0.6,0.2,1,0.3c0,0.1,0,0.1,0,0.2c-3.5,0.7-7-0.2-10.5-0.4
			c0-0.1,0-0.2,0-0.4C29.5,96.4,31.9,96.8,34.2,96.8z"/>
		<path class="st1" d="M30.4,31.7c-0.1-0.6-0.3-1-0.3-1.5c0-2.1,0-4.3,0.1-6.4c0-0.9,0.1-1.8,0.1-2.7c0-0.2,0.1-0.5,0.1-0.8
			C31.2,21.3,31.2,29.9,30.4,31.7z"/>
		<path class="st1" d="M4.7,18.9c0.5,4.9,0.1,9.9,0.2,15C4.3,33,4.1,20.7,4.7,18.9z"/>
		<path class="st1" d="M34.7,25.5c-0.1-0.2-0.3-0.4-0.3-0.6c-0.4-2.8-0.2-5.6,0.2-8.4c0-0.1,0.1-0.2,0.3-0.3
			c0.8,3.1,0.1,6.2,0.2,9.3C34.8,25.4,34.8,25.4,34.7,25.5z"/>
		<path class="st1" d="M28.6,24c-1-0.7-1-6.1-0.1-7.4C29.2,19.1,28.4,21.5,28.6,24z"/>
		<path class="st1" d="M68.5,19c-0.4-2.9-0.2-5.8,0.3-8.7c0.7,2.9,0.1,5.8,0.1,8.7C68.7,19,68.6,19,68.5,19z"/>
		<path class="st1" d="M36.7,21.3c-0.7-2.6,0-4.9-0.1-7.3c0.1,0,0.2,0,0.2-0.1c0.1,0.1,0.3,0.3,0.3,0.4c0.4,2.2,0.4,4.4-0.1,6.6
			C37,21,36.9,21,36.7,21.3z"/>
		<path class="st1" d="M32.7,21.2c-0.7-0.8-0.7-6.8-0.1-8.6C33.1,13.5,33.2,18.9,32.7,21.2z"/>
		<path class="st1" d="M45.2,21.6c-0.7-2.6,0-5.1-0.1-7.7C46,14.6,46,20.3,45.2,21.6z"/>
		<path class="st1" d="M11.6,26.1c-0.8-0.8-0.9-6.1-0.1-7.7C12.1,21.1,11.5,23.5,11.6,26.1z"/>
		<path class="st1" d="M66.8,10.8c0.5,2.3,0.3,4.6-0.2,6.9c-0.7-2.3-0.1-4.6-0.1-6.9C66.6,10.8,66.7,10.8,66.8,10.8z"/>
		<path class="st1" d="M58.1,17.1c0.8,2.1,0,4,0.1,6C57.2,22.5,57.2,18.4,58.1,17.1z"/>
		<path class="st1" d="M53.7,36.7c0.6,0.5,0.7,1.1,0.7,1.7c-0.1,0.8-0.2,1.7-0.3,2.5c0,0.1-0.1,0.3-0.2,0.4c-0.1,0-0.3-0.1-0.3-0.2
			c-0.2-0.2-0.4-0.5-0.4-0.7c0-0.9,0-1.9,0.1-2.8C53.2,37.3,53.5,37,53.7,36.7z"/>
		<path class="st1" d="M45.6,2.3c-3.4,0-6.8,0-10.3,0c0-0.1,0-0.2,0-0.3c3.4-0.2,6.9-0.2,10.3,0.1C45.6,2.2,45.6,2.3,45.6,2.3z"/>
		<path class="st1" d="M71,18.5c-0.1,3.3-0.1,6.5-0.2,9.8c-0.1,0-0.2,0-0.3,0c-0.2-3.3-0.1-6.5,0.1-9.8C70.8,18.5,70.9,18.5,71,18.5
			z"/>
		<path class="st1" d="M16.3,88.8c0,0.2,0,0.4-0.1,0.5c-0.4,0.9,0.2,2.2,1.1,2.5c0.5,0.2,1.1,0.4,1.6,0.5c0.3,0.1,0.6,0,0.8,0.1
			c0.6,0.3,1.1,0.6,1.7,1c-0.5,0-0.7-0.1-1,0c-0.2,0-0.4,0.1-0.6,0.1c-0.6-0.3-1.1-0.7-1.8-1.1c-0.1,0.3-0.2,0.6-0.4,1
			c-0.1-0.3-0.3-0.5-0.3-0.7c0.1-0.5-0.2-0.7-0.6-0.9c-0.2-0.1-0.5-0.2-0.7-0.4c-0.8-0.7-0.9-1.4-0.2-2.2
			C16.1,89.1,16.2,88.9,16.3,88.8C16.4,88.8,16.3,88.8,16.3,88.8z"/>
		<path class="st1" d="M26.4,23.9c-1-0.8-1-4.3-0.1-5.3C27.1,20.4,26.3,22.1,26.4,23.9z"/>
		<path class="st1" d="M64.5,18.9c-0.7-0.8-0.6-5.3,0-6.4C65,13.2,65,17.3,64.5,18.9z"/>
		<path class="st1" d="M15.8,91.4c0.6,0.8,0,1.6,0.2,2.4c1.4,0.4,2.9,0.8,4.4,1.2c0,0.1,0,0.2,0,0.2c-0.2,0-0.4,0.1-0.5,0
			c-1.2-0.3-2.4-0.7-3.6-1c-0.3-0.1-0.8,0-0.9-0.6C15.3,93,15.4,91.8,15.8,91.4z"/>
		<path class="st1" d="M73.3,4.2C72.6,4.1,71.9,4,71.2,4c-0.1,0.3-0.2,0.6-0.3,1c-0.1-0.2-0.3-0.4-0.3-0.5c0.1-0.7-0.3-0.8-0.8-0.9
			c-0.6-0.1-1.1-0.2-1.8-0.3C69,2.7,72.3,3.1,73.3,4.2z"/>
		<path class="st1" d="M22,31.1c-0.5-2.1-0.4-4.2,0-6.3C22.6,26.9,22,29,22,31.1z"/>
		<path class="st1" d="M5.6,16.9c0-2.9,0-5.7,0-8.6c0.1,0,0.2,0,0.2,0c0.3,2.9,0.2,5.7,0,8.6C5.8,16.9,5.7,16.9,5.6,16.9z"/>
		<path class="st1" d="M62.3,19c-0.6-1.8,0-3.5-0.1-5.2C63,14.5,63,17.9,62.3,19z"/>
		<path class="st1" d="M7.2,11.8c0,2.7,0,5.4,0,8.1c-0.1,0-0.2,0-0.2,0c-0.2-2.7-0.2-5.4,0-8.1C7,11.8,7.1,11.8,7.2,11.8z"/>
		<path class="st1" d="M38.4,94.8c0.1-0.4,0.1-0.8,0.2-1.2c0.1,0,0.2,0,0.3,0c0,0.5,0.1,1,0.2,1.6c-2,0.2-4.1-0.1-6.2-0.2
			c0-0.1,0-0.1,0-0.2C34.6,94.8,36.5,94.8,38.4,94.8z"/>
		<path class="st1" d="M30.3,11.4c0.9,0.8,0.9,3.8,0.1,4.8C29.7,14.6,30.3,13.1,30.3,11.4z"/>
		<path class="st1" d="M25.9,96.3c-0.3,0-0.5,0-0.8,0c0,0.3,0.1,0.5,0.1,0.7c-0.3,0-0.6-0.1-1.1-0.1c0.2-0.3,0.2-0.4,0.3-0.6
			c-1.1-0.2-2.2-0.5-3.3-0.7c0-0.1,0-0.2,0.1-0.4c1.6,0.3,3.2,0.1,4.7,0.8C25.9,96.1,25.9,96.2,25.9,96.3z"/>
		<path class="st1" d="M60.2,15.6c0.5,0.6,0.5,3.4,0,4.6C59.6,19.6,59.6,16.5,60.2,15.6z"/>
		<path class="st1" d="M9.2,16c0.4,2.7,0.3,5.4,0,8.1C8.9,21.4,9.1,18.7,9.2,16z"/>
		<path class="st1" d="M4.8,41.9c-0.6-0.7-0.6-4.1,0-5.5C5.3,38.3,4.9,40.1,4.8,41.9z"/>
		<path class="st1" d="M2.8,9.3c0.3,2.2,0.4,4.4,0,6.5C2.5,13.7,2.7,11.5,2.8,9.3z"/>
		<path class="st1" d="M17.8,21.6c0.5,1.8,0.1,3.4,0.1,5.1C17.2,26.1,17.2,23,17.8,21.6z"/>
		<path class="st1" d="M28.5,15.5c-0.8-0.7-0.9-3.1-0.1-4C29,12.9,28.5,14.2,28.5,15.5z"/>
		<path class="st1" d="M71,11.9c0,1.9,0,3.8,0,5.7c-0.1,0-0.2,0-0.3,0c-0.2-1.9-0.2-3.8,0.1-5.7C70.9,11.9,70.9,11.9,71,11.9z"/>
		<path class="st1" d="M73,12.9c-0.5-1.6-0.3-3.2,0-4.8C73.6,9.7,73.1,11.3,73,12.9z"/>
		<path class="st1" d="M75.2,10.4c-0.7-0.7-0.7-2.3-0.1-3.2C75.7,7.7,75.7,8.5,75.2,10.4z"/>
		<path class="st1" d="M37.7,98.9c-1.9,0.3-3.5-0.1-5.3-0.1C33.1,98.4,36.6,98.5,37.7,98.9z"/>
		<path class="st1" d="M17.8,20.8c-0.6-0.7-0.6-3-0.1-3.9C18.1,17.5,18.1,19.1,17.8,20.8z"/>
		<path class="st1" d="M26.5,98.2c1.5-0.2,3,0,4.5,0.4C29.4,98.9,28,98.5,26.5,98.2z"/>
		<path class="st1" d="M4.7,11.2c0,2.2,0,4.3,0,6.5c-0.1,0-0.1,0-0.2,0c0-2.2,0-4.3,0-6.5C4.6,11.2,4.7,11.2,4.7,11.2z"/>
		<path class="st1" d="M34.9,15c-0.8-0.5-0.9-1.6-0.4-2.1c0.1-0.1,0.4-0.2,0.4-0.1c0.2,0.2,0.4,0.4,0.3,0.6
			C35.1,13.9,35,14.4,34.9,15z"/>
		<path class="st1" d="M30.3,17.3c0.8,0.4,0.9,1.7,0.4,2.2c-0.1,0.1-0.3,0.1-0.4,0C30.2,19.4,30,19.1,30,19
			C30.1,18.4,30.2,17.9,30.3,17.3z"/>
		<path class="st1" d="M17.9,29.4c0,1.4,0,2.7,0,4.1c-0.1,0-0.2,0-0.2,0c-0.3-1.4-0.2-2.7,0-4.1C17.7,29.4,17.8,29.4,17.9,29.4z"/>
		<path class="st1" d="M56.2,10.4c0,1.4,0,2.7,0,4.2C55.6,14,55.6,11.6,56.2,10.4z"/>
		<path class="st1" d="M13.7,94c-0.2-0.6-0.4-1.3-0.6-1.9c0,0,0.1,0,0.1,0c-0.2-0.1-0.4-0.2-0.6-0.4c0.2-0.1,0.4-0.1,0.5-0.2
			c0.2-0.1,0.2-0.3,0.5-0.7C14.2,92,13.8,93,13.7,94C13.7,94,13.7,94,13.7,94z"/>
		<path class="st1" d="M26.4,18.2c-0.8-0.4-1-1.7-0.4-2.1c0.1-0.1,0.3-0.1,0.4-0.1c0.1,0.2,0.3,0.4,0.3,0.6
			C26.6,17.1,26.5,17.6,26.4,18.2z"/>
		<path class="st1" d="M7.3,22.7c0,1.3,0,2.6,0,4.1C6.8,26.1,6.7,23.8,7.3,22.7z"/>
		<path class="st1" d="M11.4,14.8c0.5,1.2,0,2.2,0.1,3.3C10.9,17.6,10.8,15.7,11.4,14.8z"/>
		<path class="st1" d="M13.4,23.3c0.4,0.8,0.4,3.3,0,4.4C13.1,26.2,13.2,24.8,13.4,23.3z"/>
		<path class="st1" d="M15.7,16.5c0.4,1.1,0.1,2,0,3C15.1,19,15.1,17.5,15.7,16.5z"/>
		<path class="st1" d="M9.1,15.6c0-1.2,0-2.5,0-3.9C9.6,12.5,9.6,14.6,9.1,15.6z"/>
		<path class="st1" d="M22,15.7c0.5,1,0.1,1.9,0.1,3C21.5,18.1,21.4,16.5,22,15.7z"/>
		<path class="st1" d="M13.6,17.9c0,1.3,0,2.7,0,4.1C13.1,21.5,13.1,18.8,13.6,17.9z"/>
		<path class="st1" d="M9.5,90c0.4,0.6,0.4,1.7,0.1,2.8C9,92.4,9,91,9.5,90z"/>
		<path class="st1" d="M66.7,8.1c0.7,0.8,0.1,1.5,0.1,2.3C66,9.9,66,8.9,66.7,8.1z"/>
		<path class="st1" d="M62.4,11.2c0.5,0.5,0.5,1.2,0.1,2.1C61.8,13,61.7,12,62.4,11.2z"/>
		<path class="st1" d="M71.2,7.3c0,1-0.1,2-0.1,3.1c-0.5-0.6-0.5-2.3-0.1-3.2C71,7.3,71.1,7.3,71.2,7.3z"/>
		<path class="st1" d="M36.7,10.5c0.7,0.5,0.8,1.5,0.1,2.3C36.2,12,36.7,11.3,36.7,10.5z"/>
		<path class="st1" d="M32.7,11.9c-0.6-0.5-0.7-1.5-0.1-2.2C33,10.1,33.1,10.4,32.7,11.9z"/>
		<path class="st1" d="M53.9,11.8c0.6,0.7,0,1.4,0.1,2.2C53.3,13.6,53.3,12.4,53.9,11.8z"/>
		<path class="st1" d="M20.1,96.3c-0.5,0.3-0.9,0.3-2.1-0.2C18.5,95.5,19.5,95.6,20.1,96.3z"/>
		<path class="st1" d="M56.2,2.3c1,0.1,1.9,0.1,3,0.2c-0.5,0.5-1.8,0.5-3,0.1C56.2,2.5,56.2,2.4,56.2,2.3z"/>
		<path class="st1" d="M70.9,31.1c0,0.9-0.1,1.8-0.1,2.6c-0.1,0-0.2,0-0.3,0c-0.2-0.9-0.2-1.8,0.1-2.6
			C70.7,31.1,70.8,31.1,70.9,31.1z"/>
		<path class="st1" d="M26.4,32.8c-0.7-0.2-0.9-0.8-0.5-1.2c0.1-0.1,0.4-0.2,0.6-0.1c0.1,0,0.2,0.3,0.2,0.5
			C26.6,32.2,26.5,32.4,26.4,32.8z"/>
		<path class="st1" d="M7.3,29.6c0,0.9,0,1.7,0,2.8C6.8,31.6,6.8,30.3,7.3,29.6z"/>
		<path class="st1" d="M68.8,7.9c0.8,0.6,0.1,1.2,0.1,1.9C68.2,9.4,68.2,8.6,68.8,7.9z"/>
		<path class="st1" d="M30.4,92.9c-0.4-0.9-0.3-1.8,0-2.7C30.8,91.1,30.5,92,30.4,92.9z"/>
		<path class="st1" d="M30.3,35.5c0.7,0.3,0.9,0.7,0.6,1.2c-0.1,0.2-0.4,0.3-0.5,0.3c-0.2-0.1-0.3-0.4-0.3-0.6
			C30,36.1,30.2,35.9,30.3,35.5z"/>
		<path class="st1" d="M28.5,29.6c-0.7-0.2-0.9-0.7-0.6-1.2c0.1-0.1,0.4-0.3,0.6-0.2c0.1,0,0.3,0.3,0.2,0.5
			C28.7,29,28.6,29.3,28.5,29.6z"/>
		<path class="st1" d="M56.1,3c0.5,0.9,0.1,1.6,0.1,2.4C55.6,5,55.5,3.8,56.1,3z"/>
		<path class="st1" d="M32.4,93c-0.3-0.9-0.3-1.8,0-2.7C32.9,91.2,32.6,92.1,32.4,93z"/>
		<path class="st1" d="M28.1,3.9c0.8,0.1,0.9,0.4,0.8,1c-0.1,0.2-0.5,0.5-0.6,0.4C27.5,4.9,28.3,4.4,28.1,3.9z"/>
		<path class="st1" d="M13.8,33.2c-0.8-0.1-0.9-0.6-0.7-1.1c0.1-0.2,0.5-0.4,0.6-0.4C14.4,32.2,13.6,32.7,13.8,33.2z"/>
		<path class="st1" d="M70.7,36.5c0,0.9,0,1.8,0,2.8C70.2,38.7,70.2,37.3,70.7,36.5z"/>
		<path class="st1" d="M28.4,90.1c0,0.9,0,1.8,0,2.7c-0.1,0-0.1,0-0.2,0c-0.3-0.9-0.2-1.8,0-2.7C28.3,90.1,28.3,90.1,28.4,90.1z"/>
		<path class="st1" d="M50.1,2.6c-1,0-1.9-0.1-3-0.1c0.5-0.5,2-0.5,3-0.1C50.1,2.4,50.1,2.5,50.1,2.6z"/>
		<path class="st1" d="M58.1,11.6c-0.3-0.9-0.3-1.8,0-2.9C58.5,9.4,58.5,10.2,58.1,11.6z"/>
		<path class="st1" d="M31,95c-0.8-0.1-1.6-0.2-2.5-0.3c0.6-0.5,1.8-0.4,2.5,0.1C31.1,94.9,31.1,94.9,31,95z"/>
		<path class="st1" d="M19.5,97.4c-0.8-0.2-1.5-0.4-2.4-0.6c0.7-0.4,1.8-0.1,2.5,0.4C19.5,97.2,19.5,97.3,19.5,97.4z"/>
		<path class="st1" d="M27.7,94.7c-0.8-0.1-1.5-0.3-2.3-0.4c0-0.1,0-0.2,0-0.2c0.8-0.2,1.6,0,2.3,0.3C27.8,94.4,27.7,94.6,27.7,94.7
			z"/>
		<path class="st1" d="M23.1,97.5c0.8,0.1,1.5,0.2,2.3,0.4c0,0.1,0,0.3-0.1,0.4c-0.8-0.1-1.5-0.2-2.3-0.4
			C23.1,97.8,23.1,97.7,23.1,97.5z"/>
		<path class="st1" d="M34.6,10c0.7,0.5,0.5,1,0.4,1.5c0,0.1-0.2,0.2-0.3,0.3c-0.1-0.1-0.3-0.3-0.3-0.4C34.4,10.9,34.5,10.5,34.6,10
			z"/>
		<path class="st1" d="M73.1,5.7c0.5,0.7,0.1,1.2,0,1.8C72.6,7.1,72.5,6.4,73.1,5.7z"/>
		<path class="st1" d="M11.3,31.6C11.2,31.4,11,31.2,11,31c0-0.3,0.2-0.5,0.3-0.8c0,0,0.3,0,0.3,0c0.1,0.3,0.1,0.5,0.1,0.8
			c0,0.2-0.1,0.3-0.1,0.5C11.4,31.5,11.4,31.6,11.3,31.6z"/>
		<path class="st1" d="M30.4,9.3c0.2,0.3,0.4,0.5,0.4,0.7c0,0.3-0.2,0.6-0.3,0.9c0,0-0.3,0-0.3,0c0-0.3-0.1-0.5-0.1-0.8
			C30.2,9.9,30.3,9.7,30.4,9.3z"/>
		<path class="st1" d="M49.7,12.7c-0.5-0.3-0.7-1-0.3-1.3c0.1-0.1,0.3-0.1,0.3-0.1c0.1,0.1,0.2,0.3,0.3,0.4c0,0.1,0,0.2,0,0.3
			C49.9,12.2,49.8,12.5,49.7,12.7z"/>
		<path class="st1" d="M43.3,9.3c0,0.9,0,1.8,0,2.6c-0.1,0-0.1,0-0.2,0c0-0.9,0-1.8,0-2.6C43.2,9.3,43.3,9.3,43.3,9.3z"/>
		<path class="st1" d="M47.4,11.7c0.2,0.3,0.4,0.5,0.4,0.7c0,0.3-0.1,0.6-0.2,0.9c0,0-0.3,0-0.3,0c-0.1-0.3-0.1-0.5-0.1-0.8
			C47.2,12.3,47.3,12.1,47.4,11.7z"/>
		<path class="st1" d="M41.2,14.1c-0.2-0.3-0.4-0.5-0.4-0.7c0-0.3,0.1-0.6,0.2-0.9c0,0,0.3,0,0.3,0c0.1,0.3,0.1,0.6,0.1,0.8
			C41.4,13.5,41.3,13.7,41.2,14.1z"/>
		<path class="st1" d="M45.3,11.9c0.5,0.3,0.6,1,0.3,1.3c-0.1,0.1-0.3,0.1-0.3,0.1C45.2,13.2,45,13,45,12.9
			C45.1,12.6,45.2,12.3,45.3,11.9z"/>
		<path class="st1" d="M43.1,13.8c0.6,0.3,0.5,0.8,0.4,1.2c0,0.1-0.2,0.2-0.4,0.3c-0.1-0.1-0.3-0.3-0.3-0.4
			C42.9,14.5,43.1,14.2,43.1,13.8z"/>
		<path class="st1" d="M13.3,12.2c0-0.9,0-1.7,0-2.6c0.1,0,0.1,0,0.2,0c0,0.9,0,1.7,0,2.6C13.4,12.2,13.4,12.2,13.3,12.2z"/>
		<path class="st1" d="M22,11.7c0,0.9,0,1.7,0,2.6c-0.1,0-0.1,0-0.2,0c0-0.9,0-1.7,0-2.6C21.9,11.7,22,11.7,22,11.7z"/>
		<path class="st1" d="M22.1,23.6c-0.6-0.6-0.6-1-0.1-1.6C22.5,22.5,22.1,22.9,22.1,23.6z"/>
		<path class="st1" d="M24,13c0-0.9,0-1.8,0-2.6c0.1,0,0.1,0,0.2,0c0,0.9,0,1.8,0,2.6C24.1,13,24,13,24,13z"/>
		<path class="st1" d="M11.2,12c0-0.8,0-1.7,0-2.5c0.1,0,0.1,0,0.2,0c0,0.8,0,1.7,0,2.5C11.3,12,11.3,12,11.2,12z"/>
		<path class="st1" d="M17.8,16.1c-0.6-0.4-0.6-0.8-0.1-1.4C18.2,15.1,17.8,15.6,17.8,16.1z"/>
		<path class="st1" d="M17.4,87.2c-0.5,0.1-1,0.2-1.6,0.3c0.3-0.6,0.7-0.7,1.5-0.5C17.4,87,17.4,87.1,17.4,87.2z"/>
		<path class="st1" d="M19.9,13c0,0.8,0,1.7,0,2.5C19.5,14.7,19.7,13.9,19.9,13z"/>
		<path class="st1" d="M9.4,29.9c-0.5-0.4-0.6-1-0.3-1.3c0.1-0.1,0.2-0.1,0.3-0.1c0.1,0,0.2,0.2,0.2,0.2C9.5,29.1,9.4,29.5,9.4,29.9
			z"/>
		<path class="st1" d="M39.2,10.9c-0.7-0.2-0.7-0.5-0.5-0.9c0.1-0.1,0.3-0.2,0.5-0.2C39.2,10.1,39.2,10.5,39.2,10.9z"/>
		<path class="st1" d="M53.8,10.5c0-0.4,0-0.9,0-1.3c0.1,0,0.2,0,0.2,0c0,0.4,0,0.9,0,1.3C53.9,10.5,53.8,10.5,53.8,10.5z"/>
		<path class="st1" d="M57.9,16.5c0-0.5,0-1.1,0-1.6c0.1,0,0.2,0,0.3,0c0,0.5-0.1,1.1-0.1,1.6C58.1,16.5,58,16.5,57.9,16.5z"/>
		<path class="st1" d="M34.7,90.4c0,0.4,0,0.9-0.1,1.3c-0.1,0-0.1,0-0.2,0c-0.3-0.4-0.3-0.9,0-1.4C34.6,90.4,34.7,90.4,34.7,90.4z"
			/>
		<path class="st1" d="M15.7,11.9c0,0.6,0,1.3,0,1.9c-0.1,0-0.1,0-0.2,0c0-0.6,0-1.3,0-1.9C15.6,11.9,15.6,11.9,15.7,11.9z"/>
		<path class="st1" d="M26.3,11c0,0.7,0,1.3,0,2c-0.1,0-0.1,0-0.2,0c0-0.7,0-1.3,0-2C26.2,11,26.2,11,26.3,11z"/>
		<path class="st1" d="M62.6,8.6c0,0.4,0,0.9-0.1,1.3c-0.1,0-0.2,0-0.3,0c-0.2-0.4-0.2-0.9,0.1-1.3C62.5,8.6,62.5,8.6,62.6,8.6z"/>
		<path class="st1" d="M26.3,89.9c-0.5-0.5-0.4-0.9,0-1.4C26.3,89,26.3,89.5,26.3,89.9z"/>
		<path class="st1" d="M28.9,9.5c-0.2,0.6-0.3,0.9-0.7,0.7C28,10.1,28,9.9,27.9,9.7C28.2,9.7,28.4,9.6,28.9,9.5z"/>
		<path class="st1" d="M47.3,10.6c0-0.4,0-0.9,0.1-1.3c0.1,0,0.2,0,0.4,0c0,0.4-0.1,0.9-0.1,1.3C47.5,10.6,47.4,10.6,47.3,10.6z"/>
		<path class="st1" d="M23,93.9c-0.4-0.1-0.8-0.2-1.2-0.4c0-0.1,0.1-0.2,0.1-0.3c0.4,0.1,0.8,0.2,1.3,0.3C23,93.6,23,93.8,23,93.9z"
			/>
		<path class="st1" d="M28.1,95.6c0-0.4,0-0.9,0-1.3c0.1,0,0.2,0,0.3,0c0,0.4-0.1,0.9-0.1,1.3C28.3,95.6,28.2,95.6,28.1,95.6z"/>
		<path class="st1" d="M36.8,93.1c-0.5-0.4-0.4-0.9-0.2-1.3c0.1,0,0.2,0,0.3,0C36.8,92.3,36.8,92.7,36.8,93.1z"/>
		<path class="st1" d="M68.6,5c0-0.4,0.1-0.8,0.1-1.3c0.1,0,0.2,0,0.2,0c0.2,0.4,0.2,0.8,0,1.3C68.7,5,68.6,5,68.6,5z"/>
		<path class="st1" d="M45.6,9.1c0,0.6,0,1-0.1,1.6C45,10.2,45,9.8,45.6,9.1z"/>
		<path class="st1" d="M20.1,26.9c0,0.4-0.1,0.9-0.1,1.3c-0.5-0.4-0.4-0.9-0.2-1.3C19.9,26.8,20,26.9,20.1,26.9z"/>
		<path class="st1" d="M56.2,14.9c0,0.4-0.1,0.8-0.1,1.3c-0.5-0.4-0.5-0.7-0.1-1.3C56.1,14.9,56.2,14.9,56.2,14.9z"/>
		<path class="st1" d="M51.5,10.6c0-0.4,0-0.9,0.1-1.3c0.1,0,0.2,0,0.3,0c0,0.4,0,0.9,0,1.3C51.8,10.6,51.7,10.6,51.5,10.6z"/>
		<path class="st1" d="M51.6,15.3c0-0.5,0-0.9,0.1-1.4c0.1,0,0.1,0,0.2,0c0.3,0.5,0.2,0.9,0,1.4C51.7,15.3,51.7,15.3,51.6,15.3z"/>
		<path class="st1" d="M60.1,14.6c0-0.4,0-0.9,0-1.3c0.1,0,0.2,0,0.3,0c0,0.4,0,0.9-0.1,1.3C60.3,14.7,60.2,14.7,60.1,14.6z"/>
		<path class="st1" d="M53.7,16c0-0.4,0-0.9,0-1.3c0.1,0,0.2,0,0.3,0c0,0.4-0.1,0.9-0.1,1.3C53.9,16,53.8,16,53.7,16z"/>
		<path class="st1" d="M58,58.9c-0.9-0.3-1.2-0.8-1-1.7c0.2-1.2,0.5-2.4,0.7-3.6c0-0.1-0.1-0.3-0.1-0.4c-0.5-1.3-0.3-2.6,0.1-3.9
			c0-0.1,0.1-0.2,0.1-0.3c0.1,0,0.2,0,0.2,0.1c0.1,0.4,0.3,0.7,0.3,1.1c0,0.4,0,0.9-0.1,1.3c-0.1,1.1-0.3,2.2,0.1,3.4
			C58.7,56.2,58.5,57.6,58,58.9z"/>
		<path class="st1" d="M36.8,65.2c-0.8-0.7-0.9-5.6-0.1-7.2C37.3,58.6,37.3,64.2,36.8,65.2z"/>
		<path class="st1" d="M26.3,69.1c-0.9-0.7-0.9-5.9-0.1-7.2C27.1,64.3,26.3,66.7,26.3,69.1z"/>
		<path class="st1" d="M30.4,58c0.8,0.7,0.8,5.5,0,6.6C29.9,64,29.8,59,30.4,58z"/>
		<path class="st1" d="M45.1,71.2c-0.7-0.8-0.7-3.8-0.1-5.8C46,65.8,46.1,69.8,45.1,71.2z"/>
		<path class="st1" d="M11.5,54.8c0.7,2.3,0.1,4.6,0.2,7C10.9,61.1,10.8,56.5,11.5,54.8z"/>
		<path class="st1" d="M55.2,69.6c-0.4-0.9-0.5-5.5-0.1-6.8C55.7,63.4,55.8,68,55.2,69.6z"/>
		<path class="st1" d="M53.7,50.8c0.5,2.4,0.3,4.7,0,7.3C53.2,57,53.2,51.7,53.7,50.8z"/>
		<path class="st1" d="M28.4,67.9c-0.8-0.8-0.8-3.3-0.1-4.4C28.9,64,29,66.4,28.4,67.9z"/>
		<path class="st1" d="M45.1,51c0.8,0.6,0.8,3.1,0.1,4.3C44.6,54.9,44.6,51.9,45.1,51z"/>
		<path class="st1" d="M43.3,59.9c-1.1-0.5-1.3-2.4-0.5-3c0.4-0.3,0.9,0,0.9,0.6C43.6,58.3,43.4,59.1,43.3,59.9z"/>
		<path class="st1" d="M28.3,55.1c0.6,0.5,0.6,1.7,0.1,2.9C27.6,57.6,27.5,55.9,28.3,55.1z"/>
		<path class="st1" d="M51.4,63.6c0.6,0.4,0.6,1.6,0.1,2.9C50.7,66.1,50.6,64.4,51.4,63.6z"/>
		<path class="st1" d="M41.1,68.6c-0.6,0-0.8-0.3-0.8-0.8c-0.1-0.6-0.1-1.2,0.4-1.6c0.3-0.2,0.7,0.1,0.7,0.6
			C41.4,67.4,41.2,68,41.1,68.6z"/>
		<path class="st1" d="M32.7,67.4c-1-0.6-1-2-0.2-2.9C33.4,65.4,32.6,66.3,32.7,67.4z"/>
		<path class="st1" d="M40.9,62.5c-0.2-0.3-0.5-0.6-0.5-1c0-0.4,0.2-0.9,0.4-1.3c0-0.1,0.4-0.1,0.4,0c0.1,0.2,0.3,0.4,0.3,0.6
			c0,0.5-0.2,1-0.3,1.5C41,62.5,41,62.5,40.9,62.5z"/>
		<path class="st1" d="M38.9,68.4c-0.7-0.4-0.9-1.7-0.4-2.2c0.1-0.1,0.4-0.1,0.4-0.1c0.1,0.2,0.3,0.4,0.3,0.6
			C39.2,67.3,39.1,67.8,38.9,68.4z"/>
		<path class="st1" d="M38.7,60.9c-0.2-0.3-0.4-0.6-0.4-0.9c0-0.5,0.2-0.9,0.4-1.4c0,0,0.3-0.1,0.3,0c0.1,0.2,0.2,0.4,0.3,0.6
			c0,0.1,0,0.1,0,0.2c-0.1,0.5-0.2,0.9-0.3,1.4C38.9,60.9,38.8,60.9,38.7,60.9z"/>
		<path class="st1" d="M30.3,53.6c0.7,0.5,0.9,1.6,0.5,2.1c-0.1,0.1-0.4,0.2-0.4,0.1c-0.2-0.2-0.4-0.4-0.3-0.6
			C30,54.8,30.2,54.2,30.3,53.6z"/>
		<path class="st1" d="M34.8,65.8c-0.8-0.4-1-1.5-0.4-2c0.1-0.1,0.4-0.1,0.4-0.1c0.1,0.2,0.3,0.4,0.3,0.6
			C35,64.8,34.9,65.3,34.8,65.8z"/>
		<path class="st1" d="M36.9,69.2c-0.7-0.4-0.9-1.5-0.4-2c0.1-0.1,0.3-0.1,0.4-0.1c0.1,0.2,0.3,0.4,0.3,0.5
			C37.1,68.2,37,68.7,36.9,69.2z"/>
		<path class="st1" d="M42.3,65.6c0.2-0.1,0.4-0.4,0.8-0.5c0.1,0,0.6,0.3,0.5,0.4c-0.1,0.4-0.3,0.9-0.6,1
			C42.8,66.6,42.3,66.3,42.3,65.6z"/>
		<path class="st1" d="M7.1,56.8c0-1.3,0-2.7,0-4c0.1,0,0.2,0,0.2,0c0.3,1.3,0,2.7,0,4C7.3,56.8,7.2,56.8,7.1,56.8z"/>
		<path class="st1" d="M17.6,47.4c-0.2-0.9-0.2-1.8,0-2.7c0.1,0,0.1,0,0.2,0c0,0.9,0,1.8,0,2.7C17.8,47.3,17.7,47.4,17.6,47.4z"/>
		<path class="st1" d="M45.2,48.6c0.7,0.3,0.9,0.9,0.5,1.3c-0.1,0.1-0.4,0.2-0.5,0.2c-0.1-0.1-0.3-0.3-0.3-0.5
			C44.9,49.3,45,49,45.2,48.6z"/>
		<path class="st1" d="M26.4,50.9c-0.7-0.3-0.9-0.8-0.6-1.2c0.1-0.1,0.4-0.3,0.6-0.2c0.1,0,0.3,0.3,0.3,0.5
			C26.6,50.3,26.5,50.6,26.4,50.9z"/>
		<path class="st1" d="M45,62.7c0.7,0.3,0.9,0.9,0.5,1.3c-0.1,0.1-0.4,0.2-0.5,0.1c-0.1-0.1-0.3-0.3-0.3-0.5
			C44.7,63.3,44.9,63,45,62.7z"/>
		<path class="st1" d="M28.5,52.4c-0.7-0.3-0.9-0.7-0.6-1.2c0.1-0.2,0.4-0.2,0.6-0.3c0.1,0.2,0.2,0.4,0.2,0.6
			C28.7,51.8,28.6,52.1,28.5,52.4z"/>
		<path class="st1" d="M68.2,65.7c0.7,1.9,0.1,3.7,0.1,5.6c-0.1,0-0.1,0-0.2,0.1c-0.1-0.1-0.2-0.2-0.3-0.4
			C67.6,69.2,67.7,67.4,68.2,65.7z"/>
		<path class="st1" d="M70.3,69.4c0,0.9,0,1.8,0,2.7c-0.1,0-0.1,0-0.2,0c0-0.9,0-1.8,0-2.7C70.2,69.4,70.3,69.4,70.3,69.4z"/>
		<path class="st1" d="M68.3,75.3c-0.6-0.2-0.8-0.9-0.4-1.3c0.1-0.1,0.3-0.1,0.4-0.1c0.1,0.1,0.2,0.3,0.2,0.4
			C68.4,74.7,68.3,75,68.3,75.3z"/>
		<path class="st1" d="M70.1,76.2c0-0.4,0-0.9,0-1.3c0.1,0,0.2,0,0.2,0c0,0.4,0,0.9,0,1.3C70.2,76.2,70.1,76.2,70.1,76.2z"/>
		<path class="st1" d="M53.4,75.8c0.6,0.7,0.6,1.5,0.6,2.3c-0.1,1-0.2,2.1-0.3,3.1c-0.1,0.5,0,0.7,0.6,0.8c0.3,0,0.7,0.2,1,0.4
			c0,0.1,0,0.2,0.1,0.2c-0.3,0.1-0.6,0.3-0.9,0.4c-0.3,0.1-0.8,0.1-1,0c-0.2-0.1-0.3-0.5-0.4-0.8c-0.1-0.3-0.1-0.7-0.1-1
			c-0.3-1.6-0.3-3.2,0.2-4.8C53.2,76.1,53.3,76,53.4,75.8z"/>
		<path class="st1" d="M63.9,79.2c-0.2-0.3-0.4-0.5-0.4-0.6c0-0.3,0.1-0.6,0.2-0.9c0,0,0.3,0,0.3,0c0,0.3,0.1,0.5,0.1,0.8
			C64.1,78.6,64.1,78.8,63.9,79.2z"/>
		<path class="st1" d="M61.7,79.3c-0.1-0.2-0.3-0.4-0.3-0.6c0-0.3,0.1-0.6,0.3-0.8c0,0,0.3,0,0.3,0c0.1,0.3,0.1,0.6,0.1,0.8
			c0,0.2-0.1,0.3-0.1,0.5C61.8,79.3,61.8,79.3,61.7,79.3z"/>
		<path class="st1" d="M59.8,79.6c-0.6-0.4-0.7-1-0.3-1.3c0.1-0.1,0.3-0.1,0.3-0.1c0.1,0.1,0.2,0.3,0.2,0.4
			C60,78.9,59.9,79.2,59.8,79.6z"/>
		<path class="st1" d="M63.9,80c0.2,0.4,0.4,0.6,0.4,0.8c0,0.3-0.2,0.5-0.3,0.8c0,0-0.3,0-0.3,0c0-0.3-0.1-0.5-0.1-0.8
			C63.6,80.6,63.7,80.4,63.9,80z"/>
		<path class="st1" d="M57.6,81.3c-0.1-0.2-0.3-0.4-0.4-0.6c0-0.3,0.1-0.6,0.2-0.8c0.2,0.1,0.5,0.2,0.5,0.3c0,0.3-0.1,0.7-0.2,1
			C57.7,81.2,57.6,81.2,57.6,81.3z"/>
		<path class="st1" d="M68.8,78.5c0.6,0.2,0.6,0.8,0.7,1.3c-0.1,0-0.1,0.1-0.2,0.1c-0.2-0.4-0.5-0.8-0.7-1.2
			C68.6,78.6,68.7,78.5,68.8,78.5z"/>
		<path class="st1" d="M29.4,73.6c-1.2,0.5-2.5,0.4-3.9,0.3C26.8,73.4,28.1,73.5,29.4,73.6z"/>
		<path class="st1" d="M60.5,91.7c0.3-0.5,0.6-1,1-1.5C61.9,90.8,61.6,91.3,60.5,91.7z"/>
		<path class="st1" d="M69.7,89.6c-0.4,0.6-0.7,0.8-1,0.4c-0.1-0.1,0-0.5,0-0.8C69,89.4,69.3,89.5,69.7,89.6z"/>
	</g>
</g>
<g>
	<g>
		<path class="st1" d="M70.3,25.5c0,0.5-1.2,0.8-1.6,0.9c-1.5,0.5-3.1,0.7-4.6,1c-4.9,0.7-9.9,1-14.8,1.2
			c-11.4,0.5-23.1,0.4-34.5-1.1c-1.7-0.2-3.4-0.5-5-0.9c-0.5-0.1-2.1-0.4-2.3-1.1c-0.4-1,4.3-1.7,4.9-1.8c4.6-0.8,9.3-1.1,13.9-1.3
			c6.3-0.3,12.7-0.4,19.1-0.2c5.9,0.1,11.8,0.4,17.6,1.2c1.8,0.2,3.6,0.5,5.4,1c0.5,0.2,2,0.5,2.1,1.2c0,0.5,1.5,0.2,1.4-0.4
			c0-0.8-1.1-1.1-1.7-1.4c-1.4-0.5-3-0.8-4.5-1.1c-5.2-0.9-10.4-1.2-15.7-1.4c-6.8-0.3-13.6-0.3-20.4,0c-5.5,0.2-11.1,0.5-16.6,1.4
			c-1.6,0.3-3.1,0.5-4.7,1.1c-0.7,0.2-1.9,0.6-2.2,1.4c-0.8,1.7,3.6,2.4,4.5,2.6c4.8,1,9.8,1.3,14.7,1.6c6.8,0.4,13.5,0.4,20.3,0.3
			c6.3-0.2,12.8-0.5,19-1.4c1.8-0.3,3.6-0.6,5.3-1.2c0.7-0.3,1.9-0.7,2-1.6C71.8,24.7,70.4,25,70.3,25.5z"/>
	</g>
</g>
</svg>
